<?xml version="1.0" encoding="utf-8" standalone="no"?>
<!DOCTYPE svg PUBLIC "-//W3C//DTD SVG 1.1//EN"
  "http://www.w3.org/Graphics/SVG/1.1/DTD/svg11.dtd">
<svg xmlns:xlink="http://www.w3.org/1999/xlink" width="288pt" height="216pt" viewBox="0 0 288 216" xmlns="http://www.w3.org/2000/svg" version="1.1">
 <metadata>
  <rdf:RDF xmlns:dc="http://purl.org/dc/elements/1.1/" xmlns:cc="http://creativecommons.org/ns#" xmlns:rdf="http://www.w3.org/1999/02/22-rdf-syntax-ns#">
   <cc:Work>
    <dc:type rdf:resource="http://purl.org/dc/dcmitype/StillImage"/>
    <dc:date>2025-12-11T15:05:26.441593</dc:date>
    <dc:format>image/svg+xml</dc:format>
    <dc:creator>
     <cc:Agent>
      <dc:title>Matplotlib v3.10.8, https://matplotlib.org/</dc:title>
     </cc:Agent>
    </dc:creator>
   </cc:Work>
  </rdf:RDF>
 </metadata>
 <defs>
  <style type="text/css">*{stroke-linejoin: round; stroke-linecap: butt}</style>
 </defs>
 <g id="figure_1">
  <g id="patch_1">
   <path d="M 0 216 
L 288 216 
L 288 0 
L 0 0 
L 0 216 
z
" style="fill: none; opacity: 0"/>
  </g>
  <g id="axes_1">
   <g id="patch_2">
    <path d="M 46.58 164.68 
L 276.552399 164.68 
L 276.552399 10.8 
L 46.58 10.8 
L 46.58 164.68 
z
" style="fill: none; opacity: 0"/>
   </g>
   <g id="patch_3">
    <path d="M 101.805673 164.68 
L 110.020345 164.68 
L 110.020345 162.316252 
L 101.805673 162.316252 
z
" clip-path="url(#pfa19077160)" style="fill: #ff0000; fill-opacity: 0.2; stroke: #ffffff; stroke-linejoin: miter"/>
   </g>
   <g id="patch_4">
    <path d="M 110.020345 164.68 
L 118.235016 164.68 
L 118.235016 164.68 
L 110.020345 164.68 
z
" clip-path="url(#pfa19077160)" style="fill: #ff0000; fill-opacity: 0.2; stroke: #ffffff; stroke-linejoin: miter"/>
   </g>
   <g id="patch_5">
    <path d="M 118.235016 164.68 
L 126.449688 164.68 
L 126.449688 164.68 
L 118.235016 164.68 
z
" clip-path="url(#pfa19077160)" style="fill: #ff0000; fill-opacity: 0.2; stroke: #ffffff; stroke-linejoin: miter"/>
   </g>
   <g id="patch_6">
    <path d="M 126.449688 164.68 
L 134.66436 164.68 
L 134.66436 162.316252 
L 126.449688 162.316252 
z
" clip-path="url(#pfa19077160)" style="fill: #ff0000; fill-opacity: 0.2; stroke: #ffffff; stroke-linejoin: miter"/>
   </g>
   <g id="patch_7">
    <path d="M 134.66436 164.68 
L 142.879032 164.68 
L 142.879032 159.952504 
L 134.66436 159.952504 
z
" clip-path="url(#pfa19077160)" style="fill: #ff0000; fill-opacity: 0.2; stroke: #ffffff; stroke-linejoin: miter"/>
   </g>
   <g id="patch_8">
    <path d="M 142.879032 164.68 
L 151.093703 164.68 
L 151.093703 157.588756 
L 142.879032 157.588756 
z
" clip-path="url(#pfa19077160)" style="fill: #ff0000; fill-opacity: 0.2; stroke: #ffffff; stroke-linejoin: miter"/>
   </g>
   <g id="patch_9">
    <path d="M 151.093703 164.68 
L 159.308375 164.68 
L 159.308375 150.497512 
L 151.093703 150.497512 
z
" clip-path="url(#pfa19077160)" style="fill: #ff0000; fill-opacity: 0.2; stroke: #ffffff; stroke-linejoin: miter"/>
   </g>
   <g id="patch_10">
    <path d="M 159.308375 164.68 
L 167.523047 164.68 
L 167.523047 141.042519 
L 159.308375 141.042519 
z
" clip-path="url(#pfa19077160)" style="fill: #ff0000; fill-opacity: 0.2; stroke: #ffffff; stroke-linejoin: miter"/>
   </g>
   <g id="patch_11">
    <path d="M 167.523047 164.68 
L 175.737719 164.68 
L 175.737719 141.042519 
L 167.523047 141.042519 
z
" clip-path="url(#pfa19077160)" style="fill: #ff0000; fill-opacity: 0.2; stroke: #ffffff; stroke-linejoin: miter"/>
   </g>
   <g id="patch_12">
    <path d="M 175.737719 164.68 
L 183.952391 164.68 
L 183.952391 145.770015 
L 175.737719 145.770015 
z
" clip-path="url(#pfa19077160)" style="fill: #ff0000; fill-opacity: 0.2; stroke: #ffffff; stroke-linejoin: miter"/>
   </g>
   <g id="patch_13">
    <path d="M 183.952391 164.68 
L 192.167062 164.68 
L 192.167062 122.132535 
L 183.952391 122.132535 
z
" clip-path="url(#pfa19077160)" style="fill: #ff0000; fill-opacity: 0.2; stroke: #ffffff; stroke-linejoin: miter"/>
   </g>
   <g id="patch_14">
    <path d="M 192.167062 164.68 
L 200.381734 164.68 
L 200.381734 122.132535 
L 192.167062 122.132535 
z
" clip-path="url(#pfa19077160)" style="fill: #ff0000; fill-opacity: 0.2; stroke: #ffffff; stroke-linejoin: miter"/>
   </g>
   <g id="patch_15">
    <path d="M 200.381734 164.68 
L 208.596406 164.68 
L 208.596406 79.585069 
L 200.381734 79.585069 
z
" clip-path="url(#pfa19077160)" style="fill: #ff0000; fill-opacity: 0.2; stroke: #ffffff; stroke-linejoin: miter"/>
   </g>
   <g id="patch_16">
    <path d="M 208.596406 164.68 
L 216.811078 164.68 
L 216.811078 65.402581 
L 208.596406 65.402581 
z
" clip-path="url(#pfa19077160)" style="fill: #ff0000; fill-opacity: 0.2; stroke: #ffffff; stroke-linejoin: miter"/>
   </g>
   <g id="patch_17">
    <path d="M 216.811078 164.68 
L 225.025749 164.68 
L 225.025749 18.127619 
L 216.811078 18.127619 
z
" clip-path="url(#pfa19077160)" style="fill: #ff0000; fill-opacity: 0.2; stroke: #ffffff; stroke-linejoin: miter"/>
   </g>
   <g id="patch_18">
    <path d="M 225.025749 164.68 
L 233.240421 164.68 
L 233.240421 27.582611 
L 225.025749 27.582611 
z
" clip-path="url(#pfa19077160)" style="fill: #ff0000; fill-opacity: 0.2; stroke: #ffffff; stroke-linejoin: miter"/>
   </g>
   <g id="patch_19">
    <path d="M 233.240421 164.68 
L 241.455093 164.68 
L 241.455093 70.130077 
L 233.240421 70.130077 
z
" clip-path="url(#pfa19077160)" style="fill: #ff0000; fill-opacity: 0.2; stroke: #ffffff; stroke-linejoin: miter"/>
   </g>
   <g id="patch_20">
    <path d="M 241.455093 164.68 
L 249.669765 164.68 
L 249.669765 84.312565 
L 241.455093 84.312565 
z
" clip-path="url(#pfa19077160)" style="fill: #ff0000; fill-opacity: 0.2; stroke: #ffffff; stroke-linejoin: miter"/>
   </g>
   <g id="patch_21">
    <path d="M 249.669765 164.68 
L 257.884437 164.68 
L 257.884437 122.132535 
L 249.669765 122.132535 
z
" clip-path="url(#pfa19077160)" style="fill: #ff0000; fill-opacity: 0.2; stroke: #ffffff; stroke-linejoin: miter"/>
   </g>
   <g id="patch_22">
    <path d="M 257.884437 164.68 
L 266.099108 164.68 
L 266.099108 155.225008 
L 257.884437 155.225008 
z
" clip-path="url(#pfa19077160)" style="fill: #ff0000; fill-opacity: 0.2; stroke: #ffffff; stroke-linejoin: miter"/>
   </g>
   <g id="patch_23">
    <path d="M 57.033291 164.68 
L 66.607827 164.68 
L 66.607827 154.061482 
L 57.033291 154.061482 
z
" clip-path="url(#pfa19077160)" style="fill: #808080; fill-opacity: 0.2; stroke: #ffffff; stroke-width: 0.929258; stroke-linejoin: miter"/>
   </g>
   <g id="patch_24">
    <path d="M 66.607827 164.68 
L 76.182364 164.68 
L 76.182364 157.095344 
L 66.607827 157.095344 
z
" clip-path="url(#pfa19077160)" style="fill: #808080; fill-opacity: 0.2; stroke: #ffffff; stroke-width: 0.929258; stroke-linejoin: miter"/>
   </g>
   <g id="patch_25">
    <path d="M 76.182364 164.68 
L 85.7569 164.68 
L 85.7569 146.476826 
L 76.182364 146.476826 
z
" clip-path="url(#pfa19077160)" style="fill: #808080; fill-opacity: 0.2; stroke: #ffffff; stroke-width: 0.929258; stroke-linejoin: miter"/>
   </g>
   <g id="patch_26">
    <path d="M 85.7569 164.68 
L 95.331437 164.68 
L 95.331437 144.959895 
L 85.7569 144.959895 
z
" clip-path="url(#pfa19077160)" style="fill: #808080; fill-opacity: 0.2; stroke: #ffffff; stroke-width: 0.929258; stroke-linejoin: miter"/>
   </g>
   <g id="patch_27">
    <path d="M 95.331437 164.68 
L 104.905973 164.68 
L 104.905973 128.273652 
L 95.331437 128.273652 
z
" clip-path="url(#pfa19077160)" style="fill: #808080; fill-opacity: 0.2; stroke: #ffffff; stroke-width: 0.929258; stroke-linejoin: miter"/>
   </g>
   <g id="patch_28">
    <path d="M 104.905973 164.68 
L 114.48051 164.68 
L 114.48051 120.688996 
L 104.905973 120.688996 
z
" clip-path="url(#pfa19077160)" style="fill: #808080; fill-opacity: 0.2; stroke: #ffffff; stroke-width: 0.929258; stroke-linejoin: miter"/>
   </g>
   <g id="patch_29">
    <path d="M 114.48051 164.68 
L 124.055046 164.68 
L 124.055046 123.722858 
L 114.48051 123.722858 
z
" clip-path="url(#pfa19077160)" style="fill: #808080; fill-opacity: 0.2; stroke: #ffffff; stroke-width: 0.929258; stroke-linejoin: miter"/>
   </g>
   <g id="patch_30">
    <path d="M 124.055046 164.68 
L 133.629583 164.68 
L 133.629583 100.96889 
L 124.055046 100.96889 
z
" clip-path="url(#pfa19077160)" style="fill: #808080; fill-opacity: 0.2; stroke: #ffffff; stroke-width: 0.929258; stroke-linejoin: miter"/>
   </g>
   <g id="patch_31">
    <path d="M 133.629583 164.68 
L 143.204119 164.68 
L 143.204119 123.722858 
L 133.629583 123.722858 
z
" clip-path="url(#pfa19077160)" style="fill: #808080; fill-opacity: 0.2; stroke: #ffffff; stroke-width: 0.929258; stroke-linejoin: miter"/>
   </g>
   <g id="patch_32">
    <path d="M 143.204119 164.68 
L 152.778656 164.68 
L 152.778656 116.138202 
L 143.204119 116.138202 
z
" clip-path="url(#pfa19077160)" style="fill: #808080; fill-opacity: 0.2; stroke: #ffffff; stroke-width: 0.929258; stroke-linejoin: miter"/>
   </g>
   <g id="patch_33">
    <path d="M 152.778656 164.68 
L 162.353192 164.68 
L 162.353192 108.553546 
L 152.778656 108.553546 
z
" clip-path="url(#pfa19077160)" style="fill: #808080; fill-opacity: 0.2; stroke: #ffffff; stroke-width: 0.929258; stroke-linejoin: miter"/>
   </g>
   <g id="patch_34">
    <path d="M 162.353192 164.68 
L 171.927729 164.68 
L 171.927729 102.485822 
L 162.353192 102.485822 
z
" clip-path="url(#pfa19077160)" style="fill: #808080; fill-opacity: 0.2; stroke: #ffffff; stroke-width: 0.929258; stroke-linejoin: miter"/>
   </g>
   <g id="patch_35">
    <path d="M 171.927729 164.68 
L 181.502265 164.68 
L 181.502265 110.070477 
L 171.927729 110.070477 
z
" clip-path="url(#pfa19077160)" style="fill: #808080; fill-opacity: 0.2; stroke: #ffffff; stroke-width: 0.929258; stroke-linejoin: miter"/>
   </g>
   <g id="patch_36">
    <path d="M 181.502265 164.68 
L 191.076802 164.68 
L 191.076802 108.553546 
L 181.502265 108.553546 
z
" clip-path="url(#pfa19077160)" style="fill: #808080; fill-opacity: 0.2; stroke: #ffffff; stroke-width: 0.929258; stroke-linejoin: miter"/>
   </g>
   <g id="patch_37">
    <path d="M 191.076802 164.68 
L 200.651338 164.68 
L 200.651338 111.587409 
L 191.076802 111.587409 
z
" clip-path="url(#pfa19077160)" style="fill: #808080; fill-opacity: 0.2; stroke: #ffffff; stroke-width: 0.929258; stroke-linejoin: miter"/>
   </g>
   <g id="patch_38">
    <path d="M 200.651338 164.68 
L 210.225875 164.68 
L 210.225875 123.722858 
L 200.651338 123.722858 
z
" clip-path="url(#pfa19077160)" style="fill: #808080; fill-opacity: 0.2; stroke: #ffffff; stroke-width: 0.929258; stroke-linejoin: miter"/>
   </g>
   <g id="patch_39">
    <path d="M 210.225875 164.68 
L 219.800411 164.68 
L 219.800411 131.307514 
L 210.225875 131.307514 
z
" clip-path="url(#pfa19077160)" style="fill: #808080; fill-opacity: 0.2; stroke: #ffffff; stroke-width: 0.929258; stroke-linejoin: miter"/>
   </g>
   <g id="patch_40">
    <path d="M 219.800411 164.68 
L 229.374948 164.68 
L 229.374948 128.273652 
L 219.800411 128.273652 
z
" clip-path="url(#pfa19077160)" style="fill: #808080; fill-opacity: 0.2; stroke: #ffffff; stroke-width: 0.929258; stroke-linejoin: miter"/>
   </g>
   <g id="patch_41">
    <path d="M 229.374948 164.68 
L 238.949484 164.68 
L 238.949484 146.476826 
L 229.374948 146.476826 
z
" clip-path="url(#pfa19077160)" style="fill: #808080; fill-opacity: 0.2; stroke: #ffffff; stroke-width: 0.929258; stroke-linejoin: miter"/>
   </g>
   <g id="patch_42">
    <path d="M 238.949484 164.68 
L 248.524021 164.68 
L 248.524021 154.061482 
L 238.949484 154.061482 
z
" clip-path="url(#pfa19077160)" style="fill: #808080; fill-opacity: 0.2; stroke: #ffffff; stroke-width: 0.929258; stroke-linejoin: miter"/>
   </g>
   <g id="matplotlib.axis_1">
    <g id="xtick_1">
     <g id="line2d_1">
      <defs>
       <path id="m683af70101" d="M 0 0 
L 0 3.5 
" style="stroke: #000000; stroke-width: 0.8"/>
      </defs>
      <g>
       <use xlink:href="#m683af70101" x="88.763814" y="164.68" style="stroke: #000000; stroke-width: 0.8"/>
      </g>
     </g>
     <g id="text_1">
      <!-- 0.2 -->
      <g transform="translate(77.631626 182.317813) scale(0.14 -0.14)">
       <defs>
        <path id="DejaVuSans-30" d="M 2034 4250 
Q 1547 4250 1301 3770 
Q 1056 3291 1056 2328 
Q 1056 1369 1301 889 
Q 1547 409 2034 409 
Q 2525 409 2770 889 
Q 3016 1369 3016 2328 
Q 3016 3291 2770 3770 
Q 2525 4250 2034 4250 
z
M 2034 4750 
Q 2819 4750 3233 4129 
Q 3647 3509 3647 2328 
Q 3647 1150 3233 529 
Q 2819 -91 2034 -91 
Q 1250 -91 836 529 
Q 422 1150 422 2328 
Q 422 3509 836 4129 
Q 1250 4750 2034 4750 
z
" transform="scale(0.015625)"/>
        <path id="DejaVuSans-2e" d="M 684 794 
L 1344 794 
L 1344 0 
L 684 0 
L 684 794 
z
" transform="scale(0.015625)"/>
        <path id="DejaVuSans-32" d="M 1228 531 
L 3431 531 
L 3431 0 
L 469 0 
L 469 531 
Q 828 903 1448 1529 
Q 2069 2156 2228 2338 
Q 2531 2678 2651 2914 
Q 2772 3150 2772 3378 
Q 2772 3750 2511 3984 
Q 2250 4219 1831 4219 
Q 1534 4219 1204 4116 
Q 875 4013 500 3803 
L 500 4441 
Q 881 4594 1212 4672 
Q 1544 4750 1819 4750 
Q 2544 4750 2975 4387 
Q 3406 4025 3406 3419 
Q 3406 3131 3298 2873 
Q 3191 2616 2906 2266 
Q 2828 2175 2409 1742 
Q 1991 1309 1228 531 
z
" transform="scale(0.015625)"/>
       </defs>
       <use xlink:href="#DejaVuSans-30"/>
       <use xlink:href="#DejaVuSans-2e" transform="translate(63.623047 0)"/>
       <use xlink:href="#DejaVuSans-32" transform="translate(95.410156 0)"/>
      </g>
     </g>
    </g>
    <g id="xtick_2">
     <g id="line2d_2">
      <g>
       <use xlink:href="#m683af70101" x="147.759856" y="164.68" style="stroke: #000000; stroke-width: 0.8"/>
      </g>
     </g>
     <g id="text_2">
      <!-- 0.4 -->
      <g transform="translate(136.627668 182.317813) scale(0.14 -0.14)">
       <defs>
        <path id="DejaVuSans-34" d="M 2419 4116 
L 825 1625 
L 2419 1625 
L 2419 4116 
z
M 2253 4666 
L 3047 4666 
L 3047 1625 
L 3713 1625 
L 3713 1100 
L 3047 1100 
L 3047 0 
L 2419 0 
L 2419 1100 
L 313 1100 
L 313 1709 
L 2253 4666 
z
" transform="scale(0.015625)"/>
       </defs>
       <use xlink:href="#DejaVuSans-30"/>
       <use xlink:href="#DejaVuSans-2e" transform="translate(63.623047 0)"/>
       <use xlink:href="#DejaVuSans-34" transform="translate(95.410156 0)"/>
      </g>
     </g>
    </g>
    <g id="xtick_3">
     <g id="line2d_3">
      <g>
       <use xlink:href="#m683af70101" x="206.755898" y="164.68" style="stroke: #000000; stroke-width: 0.8"/>
      </g>
     </g>
     <g id="text_3">
      <!-- 0.6 -->
      <g transform="translate(195.62371 182.317813) scale(0.14 -0.14)">
       <defs>
        <path id="DejaVuSans-36" d="M 2113 2584 
Q 1688 2584 1439 2293 
Q 1191 2003 1191 1497 
Q 1191 994 1439 701 
Q 1688 409 2113 409 
Q 2538 409 2786 701 
Q 3034 994 3034 1497 
Q 3034 2003 2786 2293 
Q 2538 2584 2113 2584 
z
M 3366 4563 
L 3366 3988 
Q 3128 4100 2886 4159 
Q 2644 4219 2406 4219 
Q 1781 4219 1451 3797 
Q 1122 3375 1075 2522 
Q 1259 2794 1537 2939 
Q 1816 3084 2150 3084 
Q 2853 3084 3261 2657 
Q 3669 2231 3669 1497 
Q 3669 778 3244 343 
Q 2819 -91 2113 -91 
Q 1303 -91 875 529 
Q 447 1150 447 2328 
Q 447 3434 972 4092 
Q 1497 4750 2381 4750 
Q 2619 4750 2861 4703 
Q 3103 4656 3366 4563 
z
" transform="scale(0.015625)"/>
       </defs>
       <use xlink:href="#DejaVuSans-30"/>
       <use xlink:href="#DejaVuSans-2e" transform="translate(63.623047 0)"/>
       <use xlink:href="#DejaVuSans-36" transform="translate(95.410156 0)"/>
      </g>
     </g>
    </g>
    <g id="xtick_4">
     <g id="line2d_4">
      <g>
       <use xlink:href="#m683af70101" x="265.75194" y="164.68" style="stroke: #000000; stroke-width: 0.8"/>
      </g>
     </g>
     <g id="text_4">
      <!-- 0.8 -->
      <g transform="translate(254.619753 182.317813) scale(0.14 -0.14)">
       <defs>
        <path id="DejaVuSans-38" d="M 2034 2216 
Q 1584 2216 1326 1975 
Q 1069 1734 1069 1313 
Q 1069 891 1326 650 
Q 1584 409 2034 409 
Q 2484 409 2743 651 
Q 3003 894 3003 1313 
Q 3003 1734 2745 1975 
Q 2488 2216 2034 2216 
z
M 1403 2484 
Q 997 2584 770 2862 
Q 544 3141 544 3541 
Q 544 4100 942 4425 
Q 1341 4750 2034 4750 
Q 2731 4750 3128 4425 
Q 3525 4100 3525 3541 
Q 3525 3141 3298 2862 
Q 3072 2584 2669 2484 
Q 3125 2378 3379 2068 
Q 3634 1759 3634 1313 
Q 3634 634 3220 271 
Q 2806 -91 2034 -91 
Q 1263 -91 848 271 
Q 434 634 434 1313 
Q 434 1759 690 2068 
Q 947 2378 1403 2484 
z
M 1172 3481 
Q 1172 3119 1398 2916 
Q 1625 2713 2034 2713 
Q 2441 2713 2670 2916 
Q 2900 3119 2900 3481 
Q 2900 3844 2670 4047 
Q 2441 4250 2034 4250 
Q 1625 4250 1398 4047 
Q 1172 3844 1172 3481 
z
" transform="scale(0.015625)"/>
       </defs>
       <use xlink:href="#DejaVuSans-30"/>
       <use xlink:href="#DejaVuSans-2e" transform="translate(63.623047 0)"/>
       <use xlink:href="#DejaVuSans-38" transform="translate(95.410156 0)"/>
      </g>
     </g>
    </g>
    <g id="text_5">
     <!-- p(Seq) - ESM2 -->
     <g transform="translate(105.06745 201.386875) scale(0.16 -0.16)">
      <defs>
       <path id="DejaVuSans-70" d="M 1159 525 
L 1159 -1331 
L 581 -1331 
L 581 3500 
L 1159 3500 
L 1159 2969 
Q 1341 3281 1617 3432 
Q 1894 3584 2278 3584 
Q 2916 3584 3314 3078 
Q 3713 2572 3713 1747 
Q 3713 922 3314 415 
Q 2916 -91 2278 -91 
Q 1894 -91 1617 61 
Q 1341 213 1159 525 
z
M 3116 1747 
Q 3116 2381 2855 2742 
Q 2594 3103 2138 3103 
Q 1681 3103 1420 2742 
Q 1159 2381 1159 1747 
Q 1159 1113 1420 752 
Q 1681 391 2138 391 
Q 2594 391 2855 752 
Q 3116 1113 3116 1747 
z
" transform="scale(0.015625)"/>
       <path id="DejaVuSans-28" d="M 1984 4856 
Q 1566 4138 1362 3434 
Q 1159 2731 1159 2009 
Q 1159 1288 1364 580 
Q 1569 -128 1984 -844 
L 1484 -844 
Q 1016 -109 783 600 
Q 550 1309 550 2009 
Q 550 2706 781 3412 
Q 1013 4119 1484 4856 
L 1984 4856 
z
" transform="scale(0.015625)"/>
       <path id="DejaVuSans-53" d="M 3425 4513 
L 3425 3897 
Q 3066 4069 2747 4153 
Q 2428 4238 2131 4238 
Q 1616 4238 1336 4038 
Q 1056 3838 1056 3469 
Q 1056 3159 1242 3001 
Q 1428 2844 1947 2747 
L 2328 2669 
Q 3034 2534 3370 2195 
Q 3706 1856 3706 1288 
Q 3706 609 3251 259 
Q 2797 -91 1919 -91 
Q 1588 -91 1214 -16 
Q 841 59 441 206 
L 441 856 
Q 825 641 1194 531 
Q 1563 422 1919 422 
Q 2459 422 2753 634 
Q 3047 847 3047 1241 
Q 3047 1584 2836 1778 
Q 2625 1972 2144 2069 
L 1759 2144 
Q 1053 2284 737 2584 
Q 422 2884 422 3419 
Q 422 4038 858 4394 
Q 1294 4750 2059 4750 
Q 2388 4750 2728 4690 
Q 3069 4631 3425 4513 
z
" transform="scale(0.015625)"/>
       <path id="DejaVuSans-65" d="M 3597 1894 
L 3597 1613 
L 953 1613 
Q 991 1019 1311 708 
Q 1631 397 2203 397 
Q 2534 397 2845 478 
Q 3156 559 3463 722 
L 3463 178 
Q 3153 47 2828 -22 
Q 2503 -91 2169 -91 
Q 1331 -91 842 396 
Q 353 884 353 1716 
Q 353 2575 817 3079 
Q 1281 3584 2069 3584 
Q 2775 3584 3186 3129 
Q 3597 2675 3597 1894 
z
M 3022 2063 
Q 3016 2534 2758 2815 
Q 2500 3097 2075 3097 
Q 1594 3097 1305 2825 
Q 1016 2553 972 2059 
L 3022 2063 
z
" transform="scale(0.015625)"/>
       <path id="DejaVuSans-71" d="M 947 1747 
Q 947 1113 1208 752 
Q 1469 391 1925 391 
Q 2381 391 2643 752 
Q 2906 1113 2906 1747 
Q 2906 2381 2643 2742 
Q 2381 3103 1925 3103 
Q 1469 3103 1208 2742 
Q 947 2381 947 1747 
z
M 2906 525 
Q 2725 213 2448 61 
Q 2172 -91 1784 -91 
Q 1150 -91 751 415 
Q 353 922 353 1747 
Q 353 2572 751 3078 
Q 1150 3584 1784 3584 
Q 2172 3584 2448 3432 
Q 2725 3281 2906 2969 
L 2906 3500 
L 3481 3500 
L 3481 -1331 
L 2906 -1331 
L 2906 525 
z
" transform="scale(0.015625)"/>
       <path id="DejaVuSans-29" d="M 513 4856 
L 1013 4856 
Q 1481 4119 1714 3412 
Q 1947 2706 1947 2009 
Q 1947 1309 1714 600 
Q 1481 -109 1013 -844 
L 513 -844 
Q 928 -128 1133 580 
Q 1338 1288 1338 2009 
Q 1338 2731 1133 3434 
Q 928 4138 513 4856 
z
" transform="scale(0.015625)"/>
       <path id="DejaVuSans-20" transform="scale(0.015625)"/>
       <path id="DejaVuSans-2d" d="M 313 2009 
L 1997 2009 
L 1997 1497 
L 313 1497 
L 313 2009 
z
" transform="scale(0.015625)"/>
       <path id="DejaVuSans-45" d="M 628 4666 
L 3578 4666 
L 3578 4134 
L 1259 4134 
L 1259 2753 
L 3481 2753 
L 3481 2222 
L 1259 2222 
L 1259 531 
L 3634 531 
L 3634 0 
L 628 0 
L 628 4666 
z
" transform="scale(0.015625)"/>
       <path id="DejaVuSans-4d" d="M 628 4666 
L 1569 4666 
L 2759 1491 
L 3956 4666 
L 4897 4666 
L 4897 0 
L 4281 0 
L 4281 4097 
L 3078 897 
L 2444 897 
L 1241 4097 
L 1241 0 
L 628 0 
L 628 4666 
z
" transform="scale(0.015625)"/>
      </defs>
      <use xlink:href="#DejaVuSans-70"/>
      <use xlink:href="#DejaVuSans-28" transform="translate(63.476562 0)"/>
      <use xlink:href="#DejaVuSans-53" transform="translate(102.490234 0)"/>
      <use xlink:href="#DejaVuSans-65" transform="translate(165.966797 0)"/>
      <use xlink:href="#DejaVuSans-71" transform="translate(227.490234 0)"/>
      <use xlink:href="#DejaVuSans-29" transform="translate(290.966797 0)"/>
      <use xlink:href="#DejaVuSans-20" transform="translate(329.980469 0)"/>
      <use xlink:href="#DejaVuSans-2d" transform="translate(361.767578 0)"/>
      <use xlink:href="#DejaVuSans-20" transform="translate(397.851562 0)"/>
      <use xlink:href="#DejaVuSans-45" transform="translate(429.638672 0)"/>
      <use xlink:href="#DejaVuSans-53" transform="translate(492.822266 0)"/>
      <use xlink:href="#DejaVuSans-4d" transform="translate(556.298828 0)"/>
      <use xlink:href="#DejaVuSans-32" transform="translate(642.578125 0)"/>
     </g>
    </g>
   </g>
   <g id="matplotlib.axis_2">
    <g id="ytick_1">
     <g id="line2d_5">
      <defs>
       <path id="m2316b26844" d="M 0 0 
L -3.5 0 
" style="stroke: #000000; stroke-width: 0.8"/>
      </defs>
      <g>
       <use xlink:href="#m2316b26844" x="46.58" y="164.68" style="stroke: #000000; stroke-width: 0.8"/>
      </g>
     </g>
     <g id="text_6">
      <!-- 0 -->
      <g transform="translate(30.6725 169.998906) scale(0.14 -0.14)">
       <use xlink:href="#DejaVuSans-30"/>
      </g>
     </g>
    </g>
    <g id="ytick_2">
     <g id="line2d_6">
      <g>
       <use xlink:href="#m2316b26844" x="46.58" y="140.258494" style="stroke: #000000; stroke-width: 0.8"/>
      </g>
     </g>
     <g id="text_7">
      <!-- 1 -->
      <g transform="translate(30.6725 145.577401) scale(0.14 -0.14)">
       <defs>
        <path id="DejaVuSans-31" d="M 794 531 
L 1825 531 
L 1825 4091 
L 703 3866 
L 703 4441 
L 1819 4666 
L 2450 4666 
L 2450 531 
L 3481 531 
L 3481 0 
L 794 0 
L 794 531 
z
" transform="scale(0.015625)"/>
       </defs>
       <use xlink:href="#DejaVuSans-31"/>
      </g>
     </g>
    </g>
    <g id="ytick_3">
     <g id="line2d_7">
      <g>
       <use xlink:href="#m2316b26844" x="46.58" y="115.836989" style="stroke: #000000; stroke-width: 0.8"/>
      </g>
     </g>
     <g id="text_8">
      <!-- 2 -->
      <g transform="translate(30.6725 121.155895) scale(0.14 -0.14)">
       <use xlink:href="#DejaVuSans-32"/>
      </g>
     </g>
    </g>
    <g id="ytick_4">
     <g id="line2d_8">
      <g>
       <use xlink:href="#m2316b26844" x="46.58" y="91.415483" style="stroke: #000000; stroke-width: 0.8"/>
      </g>
     </g>
     <g id="text_9">
      <!-- 3 -->
      <g transform="translate(30.6725 96.73439) scale(0.14 -0.14)">
       <defs>
        <path id="DejaVuSans-33" d="M 2597 2516 
Q 3050 2419 3304 2112 
Q 3559 1806 3559 1356 
Q 3559 666 3084 287 
Q 2609 -91 1734 -91 
Q 1441 -91 1130 -33 
Q 819 25 488 141 
L 488 750 
Q 750 597 1062 519 
Q 1375 441 1716 441 
Q 2309 441 2620 675 
Q 2931 909 2931 1356 
Q 2931 1769 2642 2001 
Q 2353 2234 1838 2234 
L 1294 2234 
L 1294 2753 
L 1863 2753 
Q 2328 2753 2575 2939 
Q 2822 3125 2822 3475 
Q 2822 3834 2567 4026 
Q 2313 4219 1838 4219 
Q 1578 4219 1281 4162 
Q 984 4106 628 3988 
L 628 4550 
Q 988 4650 1302 4700 
Q 1616 4750 1894 4750 
Q 2613 4750 3031 4423 
Q 3450 4097 3450 3541 
Q 3450 3153 3228 2886 
Q 3006 2619 2597 2516 
z
" transform="scale(0.015625)"/>
       </defs>
       <use xlink:href="#DejaVuSans-33"/>
      </g>
     </g>
    </g>
    <g id="ytick_5">
     <g id="line2d_9">
      <g>
       <use xlink:href="#m2316b26844" x="46.58" y="66.993978" style="stroke: #000000; stroke-width: 0.8"/>
      </g>
     </g>
     <g id="text_10">
      <!-- 4 -->
      <g transform="translate(30.6725 72.312884) scale(0.14 -0.14)">
       <use xlink:href="#DejaVuSans-34"/>
      </g>
     </g>
    </g>
    <g id="ytick_6">
     <g id="line2d_10">
      <g>
       <use xlink:href="#m2316b26844" x="46.58" y="42.572472" style="stroke: #000000; stroke-width: 0.8"/>
      </g>
     </g>
     <g id="text_11">
      <!-- 5 -->
      <g transform="translate(30.6725 47.891379) scale(0.14 -0.14)">
       <defs>
        <path id="DejaVuSans-35" d="M 691 4666 
L 3169 4666 
L 3169 4134 
L 1269 4134 
L 1269 2991 
Q 1406 3038 1543 3061 
Q 1681 3084 1819 3084 
Q 2600 3084 3056 2656 
Q 3513 2228 3513 1497 
Q 3513 744 3044 326 
Q 2575 -91 1722 -91 
Q 1428 -91 1123 -41 
Q 819 9 494 109 
L 494 744 
Q 775 591 1075 516 
Q 1375 441 1709 441 
Q 2250 441 2565 725 
Q 2881 1009 2881 1497 
Q 2881 1984 2565 2268 
Q 2250 2553 1709 2553 
Q 1456 2553 1204 2497 
Q 953 2441 691 2322 
L 691 4666 
z
" transform="scale(0.015625)"/>
       </defs>
       <use xlink:href="#DejaVuSans-35"/>
      </g>
     </g>
    </g>
    <g id="ytick_7">
     <g id="line2d_11">
      <g>
       <use xlink:href="#m2316b26844" x="46.58" y="18.150967" style="stroke: #000000; stroke-width: 0.8"/>
      </g>
     </g>
     <g id="text_12">
      <!-- 6 -->
      <g transform="translate(30.6725 23.469873) scale(0.14 -0.14)">
       <use xlink:href="#DejaVuSans-36"/>
      </g>
     </g>
    </g>
    <g id="text_13">
     <!-- Density -->
     <g transform="translate(23.345 118.15375) rotate(-90) scale(0.16 -0.16)">
      <defs>
       <path id="DejaVuSans-44" d="M 1259 4147 
L 1259 519 
L 2022 519 
Q 2988 519 3436 956 
Q 3884 1394 3884 2338 
Q 3884 3275 3436 3711 
Q 2988 4147 2022 4147 
L 1259 4147 
z
M 628 4666 
L 1925 4666 
Q 3281 4666 3915 4102 
Q 4550 3538 4550 2338 
Q 4550 1131 3912 565 
Q 3275 0 1925 0 
L 628 0 
L 628 4666 
z
" transform="scale(0.015625)"/>
       <path id="DejaVuSans-6e" d="M 3513 2113 
L 3513 0 
L 2938 0 
L 2938 2094 
Q 2938 2591 2744 2837 
Q 2550 3084 2163 3084 
Q 1697 3084 1428 2787 
Q 1159 2491 1159 1978 
L 1159 0 
L 581 0 
L 581 3500 
L 1159 3500 
L 1159 2956 
Q 1366 3272 1645 3428 
Q 1925 3584 2291 3584 
Q 2894 3584 3203 3211 
Q 3513 2838 3513 2113 
z
" transform="scale(0.015625)"/>
       <path id="DejaVuSans-73" d="M 2834 3397 
L 2834 2853 
Q 2591 2978 2328 3040 
Q 2066 3103 1784 3103 
Q 1356 3103 1142 2972 
Q 928 2841 928 2578 
Q 928 2378 1081 2264 
Q 1234 2150 1697 2047 
L 1894 2003 
Q 2506 1872 2764 1633 
Q 3022 1394 3022 966 
Q 3022 478 2636 193 
Q 2250 -91 1575 -91 
Q 1294 -91 989 -36 
Q 684 19 347 128 
L 347 722 
Q 666 556 975 473 
Q 1284 391 1588 391 
Q 1994 391 2212 530 
Q 2431 669 2431 922 
Q 2431 1156 2273 1281 
Q 2116 1406 1581 1522 
L 1381 1569 
Q 847 1681 609 1914 
Q 372 2147 372 2553 
Q 372 3047 722 3315 
Q 1072 3584 1716 3584 
Q 2034 3584 2315 3537 
Q 2597 3491 2834 3397 
z
" transform="scale(0.015625)"/>
       <path id="DejaVuSans-69" d="M 603 3500 
L 1178 3500 
L 1178 0 
L 603 0 
L 603 3500 
z
M 603 4863 
L 1178 4863 
L 1178 4134 
L 603 4134 
L 603 4863 
z
" transform="scale(0.015625)"/>
       <path id="DejaVuSans-74" d="M 1172 4494 
L 1172 3500 
L 2356 3500 
L 2356 3053 
L 1172 3053 
L 1172 1153 
Q 1172 725 1289 603 
Q 1406 481 1766 481 
L 2356 481 
L 2356 0 
L 1766 0 
Q 1100 0 847 248 
Q 594 497 594 1153 
L 594 3053 
L 172 3053 
L 172 3500 
L 594 3500 
L 594 4494 
L 1172 4494 
z
" transform="scale(0.015625)"/>
       <path id="DejaVuSans-79" d="M 2059 -325 
Q 1816 -950 1584 -1140 
Q 1353 -1331 966 -1331 
L 506 -1331 
L 506 -850 
L 844 -850 
Q 1081 -850 1212 -737 
Q 1344 -625 1503 -206 
L 1606 56 
L 191 3500 
L 800 3500 
L 1894 763 
L 2988 3500 
L 3597 3500 
L 2059 -325 
z
" transform="scale(0.015625)"/>
      </defs>
      <use xlink:href="#DejaVuSans-44"/>
      <use xlink:href="#DejaVuSans-65" transform="translate(77.001953 0)"/>
      <use xlink:href="#DejaVuSans-6e" transform="translate(138.525391 0)"/>
      <use xlink:href="#DejaVuSans-73" transform="translate(201.904297 0)"/>
      <use xlink:href="#DejaVuSans-69" transform="translate(254.003906 0)"/>
      <use xlink:href="#DejaVuSans-74" transform="translate(281.787109 0)"/>
      <use xlink:href="#DejaVuSans-79" transform="translate(320.996094 0)"/>
     </g>
    </g>
   </g>
   <g id="line2d_12">
    <path d="M 101.805673 163.690154 
L 105.933649 163.817494 
L 117.491981 164.428158 
L 120.794361 164.326558 
L 124.096742 164.004859 
L 127.399123 163.423247 
L 130.701503 162.575435 
L 134.003884 161.503205 
L 138.13186 159.940117 
L 142.259835 158.166405 
L 145.562216 156.547459 
L 148.864597 154.694846 
L 152.166977 152.583507 
L 156.294953 149.61048 
L 162.899714 144.740073 
L 165.3765 143.276812 
L 167.02769 142.506428 
L 169.504475 141.661632 
L 172.806856 140.897588 
L 175.283641 140.256541 
L 176.934832 139.622005 
L 178.586022 138.724927 
L 180.237212 137.506102 
L 181.888403 135.932119 
L 183.539593 133.992955 
L 185.190783 131.694848 
L 186.841974 129.051441 
L 188.493164 126.076689 
L 190.969949 121.018281 
L 193.446735 115.284094 
L 195.92352 108.958796 
L 199.225901 99.863409 
L 205.005067 83.132864 
L 209.958638 68.25416 
L 215.737804 50.656462 
L 217.388994 46.093818 
L 219.040185 42.056365 
L 220.691375 38.745672 
L 221.51697 37.422373 
L 222.342565 36.348284 
L 223.16816 35.540728 
L 223.993755 35.013551 
L 224.819351 34.776727 
L 225.644946 34.8361 
L 226.470541 35.193246 
L 227.296136 35.845469 
L 228.121731 36.78592 
L 228.947326 38.003828 
L 229.772922 39.484836 
L 231.424112 43.163473 
L 233.075302 47.653647 
L 234.726492 52.764946 
L 237.203278 61.184632 
L 242.982444 82.02559 
L 249.587205 106.467396 
L 255.366371 127.894382 
L 257.843157 136.161877 
L 259.494347 141.102716 
L 261.145537 145.506827 
L 262.796728 149.343554 
L 264.447918 152.614345 
L 266.099108 155.346551 
L 266.099108 155.346551 
" clip-path="url(#pfa19077160)" style="fill: none; stroke: #ff0000; stroke-width: 1.5; stroke-linecap: square"/>
   </g>
   <g id="line2d_13">
    <path d="M 57.033291 159.414652 
L 61.844616 157.574946 
L 66.655941 155.492196 
L 70.505001 153.615053 
L 74.35406 151.516264 
L 78.20312 149.177579 
L 82.05218 146.597321 
L 85.90124 143.785199 
L 90.712565 139.970335 
L 96.486155 135.042135 
L 105.14654 127.540206 
L 108.9956 124.534887 
L 111.882394 122.549976 
L 114.769189 120.845866 
L 117.655984 119.442594 
L 120.542779 118.336881 
L 123.429574 117.506578 
L 126.316369 116.91635 
L 130.165429 116.42458 
L 134.976754 116.098423 
L 140.750344 115.716023 
L 144.599404 115.205637 
L 147.486198 114.600825 
L 150.372993 113.788593 
L 154.222053 112.428826 
L 163.844703 108.727656 
L 166.731498 107.894902 
L 169.618293 107.310811 
L 172.505088 107.004509 
L 175.391883 106.983369 
L 178.278678 107.242239 
L 181.165473 107.773176 
L 184.052268 108.571664 
L 186.939062 109.637061 
L 189.825857 110.967663 
L 192.712652 112.553147 
L 195.599447 114.368203 
L 199.448507 117.070082 
L 206.184362 122.188023 
L 213.882482 127.978568 
L 223.505131 135.136125 
L 227.354191 138.255868 
L 232.165516 142.480984 
L 244.674961 153.829143 
L 247.561756 156.073141 
L 248.524021 156.762141 
L 248.524021 156.762141 
" clip-path="url(#pfa19077160)" style="fill: none; stroke: #808080; stroke-width: 1.5; stroke-linecap: square"/>
   </g>
   <g id="patch_43">
    <path d="M 46.58 164.68 
L 46.58 10.8 
" style="fill: none; stroke: #000000; stroke-width: 0.8; stroke-linejoin: miter; stroke-linecap: square"/>
   </g>
   <g id="patch_44">
    <path d="M 46.58 164.68 
L 276.552399 164.68 
" style="fill: none; stroke: #000000; stroke-width: 0.8; stroke-linejoin: miter; stroke-linecap: square"/>
   </g>
  </g>
 </g>
 <defs>
  <clipPath id="pfa19077160">
   <rect x="46.58" y="10.8" width="229.972399" height="153.88"/>
  </clipPath>
 </defs>
</svg>
