<?xml version="1.0" encoding="utf-8" standalone="no"?>
<!DOCTYPE svg PUBLIC "-//W3C//DTD SVG 1.1//EN"
  "http://www.w3.org/Graphics/SVG/1.1/DTD/svg11.dtd">
<svg xmlns:xlink="http://www.w3.org/1999/xlink" width="288pt" height="216pt" viewBox="0 0 288 216" xmlns="http://www.w3.org/2000/svg" version="1.1">
 <metadata>
  <rdf:RDF xmlns:dc="http://purl.org/dc/elements/1.1/" xmlns:cc="http://creativecommons.org/ns#" xmlns:rdf="http://www.w3.org/1999/02/22-rdf-syntax-ns#">
   <cc:Work>
    <dc:type rdf:resource="http://purl.org/dc/dcmitype/StillImage"/>
    <dc:date>2025-12-11T15:05:26.644588</dc:date>
    <dc:format>image/svg+xml</dc:format>
    <dc:creator>
     <cc:Agent>
      <dc:title>Matplotlib v3.10.8, https://matplotlib.org/</dc:title>
     </cc:Agent>
    </dc:creator>
   </cc:Work>
  </rdf:RDF>
 </metadata>
 <defs>
  <style type="text/css">*{stroke-linejoin: round; stroke-linecap: butt}</style>
 </defs>
 <g id="figure_1">
  <g id="patch_1">
   <path d="M 0 216 
L 288 216 
L 288 0 
L 0 0 
L 0 216 
z
" style="fill: none; opacity: 0"/>
  </g>
  <g id="axes_1">
   <g id="patch_2">
    <path d="M 46.58 164.68 
L 277.2 164.68 
L 277.2 10.8 
L 46.58 10.8 
L 46.58 164.68 
z
" style="fill: none; opacity: 0"/>
   </g>
   <g id="patch_3">
    <path d="M 84.559039 164.68 
L 93.04534 164.68 
L 93.04534 162.23746 
L 84.559039 162.23746 
z
" clip-path="url(#p318e7a56a1)" style="fill: #ff0000; fill-opacity: 0.2; stroke: #ffffff; stroke-linejoin: miter"/>
   </g>
   <g id="patch_4">
    <path d="M 93.04534 164.68 
L 101.531642 164.68 
L 101.531642 164.68 
L 93.04534 164.68 
z
" clip-path="url(#p318e7a56a1)" style="fill: #ff0000; fill-opacity: 0.2; stroke: #ffffff; stroke-linejoin: miter"/>
   </g>
   <g id="patch_5">
    <path d="M 101.531642 164.68 
L 110.017943 164.68 
L 110.017943 162.23746 
L 101.531642 162.23746 
z
" clip-path="url(#p318e7a56a1)" style="fill: #ff0000; fill-opacity: 0.2; stroke: #ffffff; stroke-linejoin: miter"/>
   </g>
   <g id="patch_6">
    <path d="M 110.017943 164.68 
L 118.504244 164.68 
L 118.504244 164.68 
L 110.017943 164.68 
z
" clip-path="url(#p318e7a56a1)" style="fill: #ff0000; fill-opacity: 0.2; stroke: #ffffff; stroke-linejoin: miter"/>
   </g>
   <g id="patch_7">
    <path d="M 118.504244 164.68 
L 126.990545 164.68 
L 126.990545 162.23746 
L 118.504244 162.23746 
z
" clip-path="url(#p318e7a56a1)" style="fill: #ff0000; fill-opacity: 0.2; stroke: #ffffff; stroke-linejoin: miter"/>
   </g>
   <g id="patch_8">
    <path d="M 126.990545 164.68 
L 135.476846 164.68 
L 135.476846 162.23746 
L 126.990545 162.23746 
z
" clip-path="url(#p318e7a56a1)" style="fill: #ff0000; fill-opacity: 0.2; stroke: #ffffff; stroke-linejoin: miter"/>
   </g>
   <g id="patch_9">
    <path d="M 135.476846 164.68 
L 143.963148 164.68 
L 143.963148 150.024762 
L 135.476846 150.024762 
z
" clip-path="url(#p318e7a56a1)" style="fill: #ff0000; fill-opacity: 0.2; stroke: #ffffff; stroke-linejoin: miter"/>
   </g>
   <g id="patch_10">
    <path d="M 143.963148 164.68 
L 152.449449 164.68 
L 152.449449 154.909841 
L 143.963148 154.909841 
z
" clip-path="url(#p318e7a56a1)" style="fill: #ff0000; fill-opacity: 0.2; stroke: #ffffff; stroke-linejoin: miter"/>
   </g>
   <g id="patch_11">
    <path d="M 152.449449 164.68 
L 160.93575 164.68 
L 160.93575 150.024762 
L 152.449449 150.024762 
z
" clip-path="url(#p318e7a56a1)" style="fill: #ff0000; fill-opacity: 0.2; stroke: #ffffff; stroke-linejoin: miter"/>
   </g>
   <g id="patch_12">
    <path d="M 160.93575 164.68 
L 169.422051 164.68 
L 169.422051 145.139683 
L 160.93575 145.139683 
z
" clip-path="url(#p318e7a56a1)" style="fill: #ff0000; fill-opacity: 0.2; stroke: #ffffff; stroke-linejoin: miter"/>
   </g>
   <g id="patch_13">
    <path d="M 169.422051 164.68 
L 177.908352 164.68 
L 177.908352 123.156825 
L 169.422051 123.156825 
z
" clip-path="url(#p318e7a56a1)" style="fill: #ff0000; fill-opacity: 0.2; stroke: #ffffff; stroke-linejoin: miter"/>
   </g>
   <g id="patch_14">
    <path d="M 177.908352 164.68 
L 186.394654 164.68 
L 186.394654 123.156825 
L 177.908352 123.156825 
z
" clip-path="url(#p318e7a56a1)" style="fill: #ff0000; fill-opacity: 0.2; stroke: #ffffff; stroke-linejoin: miter"/>
   </g>
   <g id="patch_15">
    <path d="M 186.394654 164.68 
L 194.880955 164.68 
L 194.880955 106.059048 
L 186.394654 106.059048 
z
" clip-path="url(#p318e7a56a1)" style="fill: #ff0000; fill-opacity: 0.2; stroke: #ffffff; stroke-linejoin: miter"/>
   </g>
   <g id="patch_16">
    <path d="M 194.880955 164.68 
L 203.367256 164.68 
L 203.367256 66.978413 
L 194.880955 66.978413 
z
" clip-path="url(#p318e7a56a1)" style="fill: #ff0000; fill-opacity: 0.2; stroke: #ffffff; stroke-linejoin: miter"/>
   </g>
   <g id="patch_17">
    <path d="M 203.367256 164.68 
L 211.853557 164.68 
L 211.853557 96.288889 
L 203.367256 96.288889 
z
" clip-path="url(#p318e7a56a1)" style="fill: #ff0000; fill-opacity: 0.2; stroke: #ffffff; stroke-linejoin: miter"/>
   </g>
   <g id="patch_18">
    <path d="M 211.853557 164.68 
L 220.339859 164.68 
L 220.339859 42.553016 
L 211.853557 42.553016 
z
" clip-path="url(#p318e7a56a1)" style="fill: #ff0000; fill-opacity: 0.2; stroke: #ffffff; stroke-linejoin: miter"/>
   </g>
   <g id="patch_19">
    <path d="M 220.339859 164.68 
L 228.82616 164.68 
L 228.82616 18.127619 
L 220.339859 18.127619 
z
" clip-path="url(#p318e7a56a1)" style="fill: #ff0000; fill-opacity: 0.2; stroke: #ffffff; stroke-linejoin: miter"/>
   </g>
   <g id="patch_20">
    <path d="M 228.82616 164.68 
L 237.312461 164.68 
L 237.312461 54.765714 
L 228.82616 54.765714 
z
" clip-path="url(#p318e7a56a1)" style="fill: #ff0000; fill-opacity: 0.2; stroke: #ffffff; stroke-linejoin: miter"/>
   </g>
   <g id="patch_21">
    <path d="M 237.312461 164.68 
L 245.798762 164.68 
L 245.798762 91.40381 
L 237.312461 91.40381 
z
" clip-path="url(#p318e7a56a1)" style="fill: #ff0000; fill-opacity: 0.2; stroke: #ffffff; stroke-linejoin: miter"/>
   </g>
   <g id="patch_22">
    <path d="M 245.798762 164.68 
L 254.285063 164.68 
L 254.285063 142.697143 
L 245.798762 142.697143 
z
" clip-path="url(#p318e7a56a1)" style="fill: #ff0000; fill-opacity: 0.2; stroke: #ffffff; stroke-linejoin: miter"/>
   </g>
   <g id="patch_23">
    <path d="M 57.062727 164.68 
L 67.545455 164.68 
L 67.545455 160.501125 
L 57.062727 160.501125 
z
" clip-path="url(#p318e7a56a1)" style="fill: #808080; fill-opacity: 0.2; stroke: #ffffff; stroke-linejoin: miter"/>
   </g>
   <g id="patch_24">
    <path d="M 67.545455 164.68 
L 78.028182 164.68 
L 78.028182 157.715209 
L 67.545455 157.715209 
z
" clip-path="url(#p318e7a56a1)" style="fill: #808080; fill-opacity: 0.2; stroke: #ffffff; stroke-linejoin: miter"/>
   </g>
   <g id="patch_25">
    <path d="M 78.028182 164.68 
L 88.510909 164.68 
L 88.510909 142.392669 
L 78.028182 142.392669 
z
" clip-path="url(#p318e7a56a1)" style="fill: #808080; fill-opacity: 0.2; stroke: #ffffff; stroke-linejoin: miter"/>
   </g>
   <g id="patch_26">
    <path d="M 88.510909 164.68 
L 98.993636 164.68 
L 98.993636 152.143376 
L 88.510909 152.143376 
z
" clip-path="url(#p318e7a56a1)" style="fill: #808080; fill-opacity: 0.2; stroke: #ffffff; stroke-linejoin: miter"/>
   </g>
   <g id="patch_27">
    <path d="M 98.993636 164.68 
L 109.476364 164.68 
L 109.476364 129.856045 
L 98.993636 129.856045 
z
" clip-path="url(#p318e7a56a1)" style="fill: #808080; fill-opacity: 0.2; stroke: #ffffff; stroke-linejoin: miter"/>
   </g>
   <g id="patch_28">
    <path d="M 109.476364 164.68 
L 119.959091 164.68 
L 119.959091 129.856045 
L 109.476364 129.856045 
z
" clip-path="url(#p318e7a56a1)" style="fill: #808080; fill-opacity: 0.2; stroke: #ffffff; stroke-linejoin: miter"/>
   </g>
   <g id="patch_29">
    <path d="M 119.959091 164.68 
L 130.441818 164.68 
L 130.441818 96.425049 
L 119.959091 96.425049 
z
" clip-path="url(#p318e7a56a1)" style="fill: #808080; fill-opacity: 0.2; stroke: #ffffff; stroke-linejoin: miter"/>
   </g>
   <g id="patch_30">
    <path d="M 130.441818 164.68 
L 140.924545 164.68 
L 140.924545 111.747589 
L 130.441818 111.747589 
z
" clip-path="url(#p318e7a56a1)" style="fill: #808080; fill-opacity: 0.2; stroke: #ffffff; stroke-linejoin: miter"/>
   </g>
   <g id="patch_31">
    <path d="M 140.924545 164.68 
L 151.407273 164.68 
L 151.407273 97.818007 
L 140.924545 97.818007 
z
" clip-path="url(#p318e7a56a1)" style="fill: #808080; fill-opacity: 0.2; stroke: #ffffff; stroke-linejoin: miter"/>
   </g>
   <g id="patch_32">
    <path d="M 151.407273 164.68 
L 161.89 164.68 
L 161.89 83.888425 
L 151.407273 83.888425 
z
" clip-path="url(#p318e7a56a1)" style="fill: #808080; fill-opacity: 0.2; stroke: #ffffff; stroke-linejoin: miter"/>
   </g>
   <g id="patch_33">
    <path d="M 161.89 164.68 
L 172.372727 164.68 
L 172.372727 120.105338 
L 161.89 120.105338 
z
" clip-path="url(#p318e7a56a1)" style="fill: #808080; fill-opacity: 0.2; stroke: #ffffff; stroke-linejoin: miter"/>
   </g>
   <g id="patch_34">
    <path d="M 172.372727 164.68 
L 182.855455 164.68 
L 182.855455 101.996882 
L 172.372727 101.996882 
z
" clip-path="url(#p318e7a56a1)" style="fill: #808080; fill-opacity: 0.2; stroke: #ffffff; stroke-linejoin: miter"/>
   </g>
   <g id="patch_35">
    <path d="M 182.855455 164.68 
L 193.338182 164.68 
L 193.338182 107.568715 
L 182.855455 107.568715 
z
" clip-path="url(#p318e7a56a1)" style="fill: #808080; fill-opacity: 0.2; stroke: #ffffff; stroke-linejoin: miter"/>
   </g>
   <g id="patch_36">
    <path d="M 193.338182 164.68 
L 203.820909 164.68 
L 203.820909 127.070129 
L 193.338182 127.070129 
z
" clip-path="url(#p318e7a56a1)" style="fill: #808080; fill-opacity: 0.2; stroke: #ffffff; stroke-linejoin: miter"/>
   </g>
   <g id="patch_37">
    <path d="M 203.820909 164.68 
L 214.303636 164.68 
L 214.303636 124.284213 
L 203.820909 124.284213 
z
" clip-path="url(#p318e7a56a1)" style="fill: #808080; fill-opacity: 0.2; stroke: #ffffff; stroke-linejoin: miter"/>
   </g>
   <g id="patch_38">
    <path d="M 214.303636 164.68 
L 224.786364 164.68 
L 224.786364 129.856045 
L 214.303636 129.856045 
z
" clip-path="url(#p318e7a56a1)" style="fill: #808080; fill-opacity: 0.2; stroke: #ffffff; stroke-linejoin: miter"/>
   </g>
   <g id="patch_39">
    <path d="M 224.786364 164.68 
L 235.269091 164.68 
L 235.269091 149.35746 
L 224.786364 149.35746 
z
" clip-path="url(#p318e7a56a1)" style="fill: #808080; fill-opacity: 0.2; stroke: #ffffff; stroke-linejoin: miter"/>
   </g>
   <g id="patch_40">
    <path d="M 235.269091 164.68 
L 245.751818 164.68 
L 245.751818 156.322251 
L 235.269091 156.322251 
z
" clip-path="url(#p318e7a56a1)" style="fill: #808080; fill-opacity: 0.2; stroke: #ffffff; stroke-linejoin: miter"/>
   </g>
   <g id="patch_41">
    <path d="M 245.751818 164.68 
L 256.234545 164.68 
L 256.234545 163.287042 
L 245.751818 163.287042 
z
" clip-path="url(#p318e7a56a1)" style="fill: #808080; fill-opacity: 0.2; stroke: #ffffff; stroke-linejoin: miter"/>
   </g>
   <g id="patch_42">
    <path d="M 256.234545 164.68 
L 266.717273 164.68 
L 266.717273 163.287042 
L 256.234545 163.287042 
z
" clip-path="url(#p318e7a56a1)" style="fill: #808080; fill-opacity: 0.2; stroke: #ffffff; stroke-linejoin: miter"/>
   </g>
   <g id="matplotlib.axis_1">
    <g id="xtick_1">
     <g id="line2d_1">
      <defs>
       <path id="m60b834f7e6" d="M 0 0 
L 0 3.5 
" style="stroke: #000000; stroke-width: 0.8"/>
      </defs>
      <g>
       <use xlink:href="#m60b834f7e6" x="98.191" y="164.68" style="stroke: #000000; stroke-width: 0.8"/>
      </g>
     </g>
     <g id="text_1">
      <!-- 0.2 -->
      <g transform="translate(87.058812 182.317813) scale(0.14 -0.14)">
       <defs>
        <path id="DejaVuSans-30" d="M 2034 4250 
Q 1547 4250 1301 3770 
Q 1056 3291 1056 2328 
Q 1056 1369 1301 889 
Q 1547 409 2034 409 
Q 2525 409 2770 889 
Q 3016 1369 3016 2328 
Q 3016 3291 2770 3770 
Q 2525 4250 2034 4250 
z
M 2034 4750 
Q 2819 4750 3233 4129 
Q 3647 3509 3647 2328 
Q 3647 1150 3233 529 
Q 2819 -91 2034 -91 
Q 1250 -91 836 529 
Q 422 1150 422 2328 
Q 422 3509 836 4129 
Q 1250 4750 2034 4750 
z
" transform="scale(0.015625)"/>
        <path id="DejaVuSans-2e" d="M 684 794 
L 1344 794 
L 1344 0 
L 684 0 
L 684 794 
z
" transform="scale(0.015625)"/>
        <path id="DejaVuSans-32" d="M 1228 531 
L 3431 531 
L 3431 0 
L 469 0 
L 469 531 
Q 828 903 1448 1529 
Q 2069 2156 2228 2338 
Q 2531 2678 2651 2914 
Q 2772 3150 2772 3378 
Q 2772 3750 2511 3984 
Q 2250 4219 1831 4219 
Q 1534 4219 1204 4116 
Q 875 4013 500 3803 
L 500 4441 
Q 881 4594 1212 4672 
Q 1544 4750 1819 4750 
Q 2544 4750 2975 4387 
Q 3406 4025 3406 3419 
Q 3406 3131 3298 2873 
Q 3191 2616 2906 2266 
Q 2828 2175 2409 1742 
Q 1991 1309 1228 531 
z
" transform="scale(0.015625)"/>
       </defs>
       <use xlink:href="#DejaVuSans-30"/>
       <use xlink:href="#DejaVuSans-2e" transform="translate(63.623047 0)"/>
       <use xlink:href="#DejaVuSans-32" transform="translate(95.410156 0)"/>
      </g>
     </g>
    </g>
    <g id="xtick_2">
     <g id="line2d_2">
      <g>
       <use xlink:href="#m60b834f7e6" x="150.147545" y="164.68" style="stroke: #000000; stroke-width: 0.8"/>
      </g>
     </g>
     <g id="text_2">
      <!-- 0.4 -->
      <g transform="translate(139.015358 182.317813) scale(0.14 -0.14)">
       <defs>
        <path id="DejaVuSans-34" d="M 2419 4116 
L 825 1625 
L 2419 1625 
L 2419 4116 
z
M 2253 4666 
L 3047 4666 
L 3047 1625 
L 3713 1625 
L 3713 1100 
L 3047 1100 
L 3047 0 
L 2419 0 
L 2419 1100 
L 313 1100 
L 313 1709 
L 2253 4666 
z
" transform="scale(0.015625)"/>
       </defs>
       <use xlink:href="#DejaVuSans-30"/>
       <use xlink:href="#DejaVuSans-2e" transform="translate(63.623047 0)"/>
       <use xlink:href="#DejaVuSans-34" transform="translate(95.410156 0)"/>
      </g>
     </g>
    </g>
    <g id="xtick_3">
     <g id="line2d_3">
      <g>
       <use xlink:href="#m60b834f7e6" x="202.10409" y="164.68" style="stroke: #000000; stroke-width: 0.8"/>
      </g>
     </g>
     <g id="text_3">
      <!-- 0.6 -->
      <g transform="translate(190.971903 182.317813) scale(0.14 -0.14)">
       <defs>
        <path id="DejaVuSans-36" d="M 2113 2584 
Q 1688 2584 1439 2293 
Q 1191 2003 1191 1497 
Q 1191 994 1439 701 
Q 1688 409 2113 409 
Q 2538 409 2786 701 
Q 3034 994 3034 1497 
Q 3034 2003 2786 2293 
Q 2538 2584 2113 2584 
z
M 3366 4563 
L 3366 3988 
Q 3128 4100 2886 4159 
Q 2644 4219 2406 4219 
Q 1781 4219 1451 3797 
Q 1122 3375 1075 2522 
Q 1259 2794 1537 2939 
Q 1816 3084 2150 3084 
Q 2853 3084 3261 2657 
Q 3669 2231 3669 1497 
Q 3669 778 3244 343 
Q 2819 -91 2113 -91 
Q 1303 -91 875 529 
Q 447 1150 447 2328 
Q 447 3434 972 4092 
Q 1497 4750 2381 4750 
Q 2619 4750 2861 4703 
Q 3103 4656 3366 4563 
z
" transform="scale(0.015625)"/>
       </defs>
       <use xlink:href="#DejaVuSans-30"/>
       <use xlink:href="#DejaVuSans-2e" transform="translate(63.623047 0)"/>
       <use xlink:href="#DejaVuSans-36" transform="translate(95.410156 0)"/>
      </g>
     </g>
    </g>
    <g id="xtick_4">
     <g id="line2d_4">
      <g>
       <use xlink:href="#m60b834f7e6" x="254.060635" y="164.68" style="stroke: #000000; stroke-width: 0.8"/>
      </g>
     </g>
     <g id="text_4">
      <!-- 0.8 -->
      <g transform="translate(242.928448 182.317813) scale(0.14 -0.14)">
       <defs>
        <path id="DejaVuSans-38" d="M 2034 2216 
Q 1584 2216 1326 1975 
Q 1069 1734 1069 1313 
Q 1069 891 1326 650 
Q 1584 409 2034 409 
Q 2484 409 2743 651 
Q 3003 894 3003 1313 
Q 3003 1734 2745 1975 
Q 2488 2216 2034 2216 
z
M 1403 2484 
Q 997 2584 770 2862 
Q 544 3141 544 3541 
Q 544 4100 942 4425 
Q 1341 4750 2034 4750 
Q 2731 4750 3128 4425 
Q 3525 4100 3525 3541 
Q 3525 3141 3298 2862 
Q 3072 2584 2669 2484 
Q 3125 2378 3379 2068 
Q 3634 1759 3634 1313 
Q 3634 634 3220 271 
Q 2806 -91 2034 -91 
Q 1263 -91 848 271 
Q 434 634 434 1313 
Q 434 1759 690 2068 
Q 947 2378 1403 2484 
z
M 1172 3481 
Q 1172 3119 1398 2916 
Q 1625 2713 2034 2713 
Q 2441 2713 2670 2916 
Q 2900 3119 2900 3481 
Q 2900 3844 2670 4047 
Q 2441 4250 2034 4250 
Q 1625 4250 1398 4047 
Q 1172 3844 1172 3481 
z
" transform="scale(0.015625)"/>
       </defs>
       <use xlink:href="#DejaVuSans-30"/>
       <use xlink:href="#DejaVuSans-2e" transform="translate(63.623047 0)"/>
       <use xlink:href="#DejaVuSans-38" transform="translate(95.410156 0)"/>
      </g>
     </g>
    </g>
    <g id="text_5">
     <!-- p(Seq) - ESM2 -->
     <g transform="translate(105.39125 201.386875) scale(0.16 -0.16)">
      <defs>
       <path id="DejaVuSans-70" d="M 1159 525 
L 1159 -1331 
L 581 -1331 
L 581 3500 
L 1159 3500 
L 1159 2969 
Q 1341 3281 1617 3432 
Q 1894 3584 2278 3584 
Q 2916 3584 3314 3078 
Q 3713 2572 3713 1747 
Q 3713 922 3314 415 
Q 2916 -91 2278 -91 
Q 1894 -91 1617 61 
Q 1341 213 1159 525 
z
M 3116 1747 
Q 3116 2381 2855 2742 
Q 2594 3103 2138 3103 
Q 1681 3103 1420 2742 
Q 1159 2381 1159 1747 
Q 1159 1113 1420 752 
Q 1681 391 2138 391 
Q 2594 391 2855 752 
Q 3116 1113 3116 1747 
z
" transform="scale(0.015625)"/>
       <path id="DejaVuSans-28" d="M 1984 4856 
Q 1566 4138 1362 3434 
Q 1159 2731 1159 2009 
Q 1159 1288 1364 580 
Q 1569 -128 1984 -844 
L 1484 -844 
Q 1016 -109 783 600 
Q 550 1309 550 2009 
Q 550 2706 781 3412 
Q 1013 4119 1484 4856 
L 1984 4856 
z
" transform="scale(0.015625)"/>
       <path id="DejaVuSans-53" d="M 3425 4513 
L 3425 3897 
Q 3066 4069 2747 4153 
Q 2428 4238 2131 4238 
Q 1616 4238 1336 4038 
Q 1056 3838 1056 3469 
Q 1056 3159 1242 3001 
Q 1428 2844 1947 2747 
L 2328 2669 
Q 3034 2534 3370 2195 
Q 3706 1856 3706 1288 
Q 3706 609 3251 259 
Q 2797 -91 1919 -91 
Q 1588 -91 1214 -16 
Q 841 59 441 206 
L 441 856 
Q 825 641 1194 531 
Q 1563 422 1919 422 
Q 2459 422 2753 634 
Q 3047 847 3047 1241 
Q 3047 1584 2836 1778 
Q 2625 1972 2144 2069 
L 1759 2144 
Q 1053 2284 737 2584 
Q 422 2884 422 3419 
Q 422 4038 858 4394 
Q 1294 4750 2059 4750 
Q 2388 4750 2728 4690 
Q 3069 4631 3425 4513 
z
" transform="scale(0.015625)"/>
       <path id="DejaVuSans-65" d="M 3597 1894 
L 3597 1613 
L 953 1613 
Q 991 1019 1311 708 
Q 1631 397 2203 397 
Q 2534 397 2845 478 
Q 3156 559 3463 722 
L 3463 178 
Q 3153 47 2828 -22 
Q 2503 -91 2169 -91 
Q 1331 -91 842 396 
Q 353 884 353 1716 
Q 353 2575 817 3079 
Q 1281 3584 2069 3584 
Q 2775 3584 3186 3129 
Q 3597 2675 3597 1894 
z
M 3022 2063 
Q 3016 2534 2758 2815 
Q 2500 3097 2075 3097 
Q 1594 3097 1305 2825 
Q 1016 2553 972 2059 
L 3022 2063 
z
" transform="scale(0.015625)"/>
       <path id="DejaVuSans-71" d="M 947 1747 
Q 947 1113 1208 752 
Q 1469 391 1925 391 
Q 2381 391 2643 752 
Q 2906 1113 2906 1747 
Q 2906 2381 2643 2742 
Q 2381 3103 1925 3103 
Q 1469 3103 1208 2742 
Q 947 2381 947 1747 
z
M 2906 525 
Q 2725 213 2448 61 
Q 2172 -91 1784 -91 
Q 1150 -91 751 415 
Q 353 922 353 1747 
Q 353 2572 751 3078 
Q 1150 3584 1784 3584 
Q 2172 3584 2448 3432 
Q 2725 3281 2906 2969 
L 2906 3500 
L 3481 3500 
L 3481 -1331 
L 2906 -1331 
L 2906 525 
z
" transform="scale(0.015625)"/>
       <path id="DejaVuSans-29" d="M 513 4856 
L 1013 4856 
Q 1481 4119 1714 3412 
Q 1947 2706 1947 2009 
Q 1947 1309 1714 600 
Q 1481 -109 1013 -844 
L 513 -844 
Q 928 -128 1133 580 
Q 1338 1288 1338 2009 
Q 1338 2731 1133 3434 
Q 928 4138 513 4856 
z
" transform="scale(0.015625)"/>
       <path id="DejaVuSans-20" transform="scale(0.015625)"/>
       <path id="DejaVuSans-2d" d="M 313 2009 
L 1997 2009 
L 1997 1497 
L 313 1497 
L 313 2009 
z
" transform="scale(0.015625)"/>
       <path id="DejaVuSans-45" d="M 628 4666 
L 3578 4666 
L 3578 4134 
L 1259 4134 
L 1259 2753 
L 3481 2753 
L 3481 2222 
L 1259 2222 
L 1259 531 
L 3634 531 
L 3634 0 
L 628 0 
L 628 4666 
z
" transform="scale(0.015625)"/>
       <path id="DejaVuSans-4d" d="M 628 4666 
L 1569 4666 
L 2759 1491 
L 3956 4666 
L 4897 4666 
L 4897 0 
L 4281 0 
L 4281 4097 
L 3078 897 
L 2444 897 
L 1241 4097 
L 1241 0 
L 628 0 
L 628 4666 
z
" transform="scale(0.015625)"/>
      </defs>
      <use xlink:href="#DejaVuSans-70"/>
      <use xlink:href="#DejaVuSans-28" transform="translate(63.476562 0)"/>
      <use xlink:href="#DejaVuSans-53" transform="translate(102.490234 0)"/>
      <use xlink:href="#DejaVuSans-65" transform="translate(165.966797 0)"/>
      <use xlink:href="#DejaVuSans-71" transform="translate(227.490234 0)"/>
      <use xlink:href="#DejaVuSans-29" transform="translate(290.966797 0)"/>
      <use xlink:href="#DejaVuSans-20" transform="translate(329.980469 0)"/>
      <use xlink:href="#DejaVuSans-2d" transform="translate(361.767578 0)"/>
      <use xlink:href="#DejaVuSans-20" transform="translate(397.851562 0)"/>
      <use xlink:href="#DejaVuSans-45" transform="translate(429.638672 0)"/>
      <use xlink:href="#DejaVuSans-53" transform="translate(492.822266 0)"/>
      <use xlink:href="#DejaVuSans-4d" transform="translate(556.298828 0)"/>
      <use xlink:href="#DejaVuSans-32" transform="translate(642.578125 0)"/>
     </g>
    </g>
   </g>
   <g id="matplotlib.axis_2">
    <g id="ytick_1">
     <g id="line2d_5">
      <defs>
       <path id="m689b85ae87" d="M 0 0 
L -3.5 0 
" style="stroke: #000000; stroke-width: 0.8"/>
      </defs>
      <g>
       <use xlink:href="#m689b85ae87" x="46.58" y="164.68" style="stroke: #000000; stroke-width: 0.8"/>
      </g>
     </g>
     <g id="text_6">
      <!-- 0 -->
      <g transform="translate(30.6725 169.998906) scale(0.14 -0.14)">
       <use xlink:href="#DejaVuSans-30"/>
      </g>
     </g>
    </g>
    <g id="ytick_2">
     <g id="line2d_6">
      <g>
       <use xlink:href="#m689b85ae87" x="46.58" y="136.912995" style="stroke: #000000; stroke-width: 0.8"/>
      </g>
     </g>
     <g id="text_7">
      <!-- 1 -->
      <g transform="translate(30.6725 142.231901) scale(0.14 -0.14)">
       <defs>
        <path id="DejaVuSans-31" d="M 794 531 
L 1825 531 
L 1825 4091 
L 703 3866 
L 703 4441 
L 1819 4666 
L 2450 4666 
L 2450 531 
L 3481 531 
L 3481 0 
L 794 0 
L 794 531 
z
" transform="scale(0.015625)"/>
       </defs>
       <use xlink:href="#DejaVuSans-31"/>
      </g>
     </g>
    </g>
    <g id="ytick_3">
     <g id="line2d_7">
      <g>
       <use xlink:href="#m689b85ae87" x="46.58" y="109.145989" style="stroke: #000000; stroke-width: 0.8"/>
      </g>
     </g>
     <g id="text_8">
      <!-- 2 -->
      <g transform="translate(30.6725 114.464895) scale(0.14 -0.14)">
       <use xlink:href="#DejaVuSans-32"/>
      </g>
     </g>
    </g>
    <g id="ytick_4">
     <g id="line2d_8">
      <g>
       <use xlink:href="#m689b85ae87" x="46.58" y="81.378984" style="stroke: #000000; stroke-width: 0.8"/>
      </g>
     </g>
     <g id="text_9">
      <!-- 3 -->
      <g transform="translate(30.6725 86.69789) scale(0.14 -0.14)">
       <defs>
        <path id="DejaVuSans-33" d="M 2597 2516 
Q 3050 2419 3304 2112 
Q 3559 1806 3559 1356 
Q 3559 666 3084 287 
Q 2609 -91 1734 -91 
Q 1441 -91 1130 -33 
Q 819 25 488 141 
L 488 750 
Q 750 597 1062 519 
Q 1375 441 1716 441 
Q 2309 441 2620 675 
Q 2931 909 2931 1356 
Q 2931 1769 2642 2001 
Q 2353 2234 1838 2234 
L 1294 2234 
L 1294 2753 
L 1863 2753 
Q 2328 2753 2575 2939 
Q 2822 3125 2822 3475 
Q 2822 3834 2567 4026 
Q 2313 4219 1838 4219 
Q 1578 4219 1281 4162 
Q 984 4106 628 3988 
L 628 4550 
Q 988 4650 1302 4700 
Q 1616 4750 1894 4750 
Q 2613 4750 3031 4423 
Q 3450 4097 3450 3541 
Q 3450 3153 3228 2886 
Q 3006 2619 2597 2516 
z
" transform="scale(0.015625)"/>
       </defs>
       <use xlink:href="#DejaVuSans-33"/>
      </g>
     </g>
    </g>
    <g id="ytick_5">
     <g id="line2d_9">
      <g>
       <use xlink:href="#m689b85ae87" x="46.58" y="53.611978" style="stroke: #000000; stroke-width: 0.8"/>
      </g>
     </g>
     <g id="text_10">
      <!-- 4 -->
      <g transform="translate(30.6725 58.930884) scale(0.14 -0.14)">
       <use xlink:href="#DejaVuSans-34"/>
      </g>
     </g>
    </g>
    <g id="ytick_6">
     <g id="line2d_10">
      <g>
       <use xlink:href="#m689b85ae87" x="46.58" y="25.844973" style="stroke: #000000; stroke-width: 0.8"/>
      </g>
     </g>
     <g id="text_11">
      <!-- 5 -->
      <g transform="translate(30.6725 31.163879) scale(0.14 -0.14)">
       <defs>
        <path id="DejaVuSans-35" d="M 691 4666 
L 3169 4666 
L 3169 4134 
L 1269 4134 
L 1269 2991 
Q 1406 3038 1543 3061 
Q 1681 3084 1819 3084 
Q 2600 3084 3056 2656 
Q 3513 2228 3513 1497 
Q 3513 744 3044 326 
Q 2575 -91 1722 -91 
Q 1428 -91 1123 -41 
Q 819 9 494 109 
L 494 744 
Q 775 591 1075 516 
Q 1375 441 1709 441 
Q 2250 441 2565 725 
Q 2881 1009 2881 1497 
Q 2881 1984 2565 2268 
Q 2250 2553 1709 2553 
Q 1456 2553 1204 2497 
Q 953 2441 691 2322 
L 691 4666 
z
" transform="scale(0.015625)"/>
       </defs>
       <use xlink:href="#DejaVuSans-35"/>
      </g>
     </g>
    </g>
    <g id="text_12">
     <!-- Density -->
     <g transform="translate(23.345 118.15375) rotate(-90) scale(0.16 -0.16)">
      <defs>
       <path id="DejaVuSans-44" d="M 1259 4147 
L 1259 519 
L 2022 519 
Q 2988 519 3436 956 
Q 3884 1394 3884 2338 
Q 3884 3275 3436 3711 
Q 2988 4147 2022 4147 
L 1259 4147 
z
M 628 4666 
L 1925 4666 
Q 3281 4666 3915 4102 
Q 4550 3538 4550 2338 
Q 4550 1131 3912 565 
Q 3275 0 1925 0 
L 628 0 
L 628 4666 
z
" transform="scale(0.015625)"/>
       <path id="DejaVuSans-6e" d="M 3513 2113 
L 3513 0 
L 2938 0 
L 2938 2094 
Q 2938 2591 2744 2837 
Q 2550 3084 2163 3084 
Q 1697 3084 1428 2787 
Q 1159 2491 1159 1978 
L 1159 0 
L 581 0 
L 581 3500 
L 1159 3500 
L 1159 2956 
Q 1366 3272 1645 3428 
Q 1925 3584 2291 3584 
Q 2894 3584 3203 3211 
Q 3513 2838 3513 2113 
z
" transform="scale(0.015625)"/>
       <path id="DejaVuSans-73" d="M 2834 3397 
L 2834 2853 
Q 2591 2978 2328 3040 
Q 2066 3103 1784 3103 
Q 1356 3103 1142 2972 
Q 928 2841 928 2578 
Q 928 2378 1081 2264 
Q 1234 2150 1697 2047 
L 1894 2003 
Q 2506 1872 2764 1633 
Q 3022 1394 3022 966 
Q 3022 478 2636 193 
Q 2250 -91 1575 -91 
Q 1294 -91 989 -36 
Q 684 19 347 128 
L 347 722 
Q 666 556 975 473 
Q 1284 391 1588 391 
Q 1994 391 2212 530 
Q 2431 669 2431 922 
Q 2431 1156 2273 1281 
Q 2116 1406 1581 1522 
L 1381 1569 
Q 847 1681 609 1914 
Q 372 2147 372 2553 
Q 372 3047 722 3315 
Q 1072 3584 1716 3584 
Q 2034 3584 2315 3537 
Q 2597 3491 2834 3397 
z
" transform="scale(0.015625)"/>
       <path id="DejaVuSans-69" d="M 603 3500 
L 1178 3500 
L 1178 0 
L 603 0 
L 603 3500 
z
M 603 4863 
L 1178 4863 
L 1178 4134 
L 603 4134 
L 603 4863 
z
" transform="scale(0.015625)"/>
       <path id="DejaVuSans-74" d="M 1172 4494 
L 1172 3500 
L 2356 3500 
L 2356 3053 
L 1172 3053 
L 1172 1153 
Q 1172 725 1289 603 
Q 1406 481 1766 481 
L 2356 481 
L 2356 0 
L 1766 0 
Q 1100 0 847 248 
Q 594 497 594 1153 
L 594 3053 
L 172 3053 
L 172 3500 
L 594 3500 
L 594 4494 
L 1172 4494 
z
" transform="scale(0.015625)"/>
       <path id="DejaVuSans-79" d="M 2059 -325 
Q 1816 -950 1584 -1140 
Q 1353 -1331 966 -1331 
L 506 -1331 
L 506 -850 
L 844 -850 
Q 1081 -850 1212 -737 
Q 1344 -625 1503 -206 
L 1606 56 
L 191 3500 
L 800 3500 
L 1894 763 
L 2988 3500 
L 3597 3500 
L 2059 -325 
z
" transform="scale(0.015625)"/>
      </defs>
      <use xlink:href="#DejaVuSans-44"/>
      <use xlink:href="#DejaVuSans-65" transform="translate(77.001953 0)"/>
      <use xlink:href="#DejaVuSans-6e" transform="translate(138.525391 0)"/>
      <use xlink:href="#DejaVuSans-73" transform="translate(201.904297 0)"/>
      <use xlink:href="#DejaVuSans-69" transform="translate(254.003906 0)"/>
      <use xlink:href="#DejaVuSans-74" transform="translate(281.787109 0)"/>
      <use xlink:href="#DejaVuSans-79" transform="translate(320.996094 0)"/>
     </g>
    </g>
   </g>
   <g id="line2d_11">
    <path d="M 84.559039 163.673372 
L 88.823512 163.759779 
L 97.352458 164.017214 
L 101.616931 163.890181 
L 114.41035 163.131738 
L 117.821928 162.729995 
L 120.380612 162.251243 
L 123.79219 161.347794 
L 127.203769 160.183317 
L 133.174031 157.819654 
L 139.144293 155.539239 
L 148.526134 152.140878 
L 151.084817 150.951292 
L 153.643501 149.559072 
L 156.202185 147.955779 
L 158.760869 146.132649 
L 161.319553 144.056714 
L 163.878236 141.672681 
L 166.43692 138.941449 
L 168.995604 135.894695 
L 182.641917 118.795301 
L 184.347707 116.19031 
L 186.053496 113.211982 
L 187.759285 109.839171 
L 190.317969 104.164803 
L 195.435336 92.348003 
L 197.99402 87.181046 
L 200.552704 82.695694 
L 204.817177 75.640044 
L 206.522966 72.457712 
L 208.228755 68.872417 
L 209.934544 64.860657 
L 212.493228 58.237261 
L 215.904807 49.350899 
L 217.610596 45.495548 
L 219.316385 42.402846 
L 220.16928 41.217719 
L 221.022174 40.306397 
L 221.875069 39.688319 
L 222.727963 39.378362 
L 223.580858 39.386732 
L 224.433753 39.718987 
L 225.286647 40.376192 
L 226.139542 41.355155 
L 226.992436 42.648763 
L 227.845331 44.246381 
L 228.698226 46.1343 
L 230.404015 50.713813 
L 232.109804 56.235156 
L 233.815593 62.529019 
L 236.374277 73.043666 
L 239.785855 88.243267 
L 245.756117 115.157187 
L 248.314801 125.803437 
L 250.873485 135.382185 
L 252.579274 141.020759 
L 254.285063 145.985629 
L 254.285063 145.985629 
" clip-path="url(#p318e7a56a1)" style="fill: none; stroke: #ff0000; stroke-width: 1.5; stroke-linecap: square"/>
   </g>
   <g id="line2d_12">
    <path d="M 57.062727 161.776215 
L 60.223349 160.771865 
L 63.38397 159.524083 
L 66.544591 158.032093 
L 70.758753 155.743267 
L 79.187076 151.021286 
L 83.401238 148.974828 
L 90.776021 145.499712 
L 93.936642 143.653306 
L 96.043723 142.190789 
L 98.150804 140.510955 
L 100.257885 138.602708 
L 102.364966 136.469814 
L 105.525587 132.892032 
L 109.739749 127.609943 
L 116.060991 119.514374 
L 119.221613 115.885362 
L 121.328693 113.75971 
L 123.435774 111.909474 
L 125.542855 110.341206 
L 127.649936 109.034027 
L 129.757017 107.942019 
L 132.917638 106.564637 
L 139.238881 103.932378 
L 148.720745 99.635961 
L 150.827825 99.023821 
L 152.934906 98.692954 
L 155.041987 98.680804 
L 157.149068 98.989425 
L 159.256149 99.584856 
L 161.36323 100.40349 
L 165.577392 102.382902 
L 169.791553 104.332556 
L 174.005715 105.993355 
L 180.326958 108.360958 
L 183.487579 109.807578 
L 186.6482 111.542713 
L 189.808821 113.542477 
L 195.076524 117.209837 
L 211.93317 129.290988 
L 215.093792 131.968325 
L 218.254413 134.889421 
L 223.522115 140.143323 
L 229.843358 146.431846 
L 233.003979 149.290404 
L 236.1646 151.856205 
L 239.325222 154.108103 
L 242.485843 156.059672 
L 245.646464 157.740864 
L 248.807085 159.180885 
L 251.967707 160.399265 
L 255.128328 161.407015 
L 258.288949 162.214331 
L 262.503111 163.010407 
L 266.717273 163.549829 
L 266.717273 163.549829 
" clip-path="url(#p318e7a56a1)" style="fill: none; stroke: #808080; stroke-width: 1.5; stroke-linecap: square"/>
   </g>
   <g id="patch_43">
    <path d="M 46.58 164.68 
L 46.58 10.8 
" style="fill: none; stroke: #000000; stroke-width: 0.8; stroke-linejoin: miter; stroke-linecap: square"/>
   </g>
   <g id="patch_44">
    <path d="M 46.58 164.68 
L 277.2 164.68 
" style="fill: none; stroke: #000000; stroke-width: 0.8; stroke-linejoin: miter; stroke-linecap: square"/>
   </g>
  </g>
 </g>
 <defs>
  <clipPath id="p318e7a56a1">
   <rect x="46.58" y="10.8" width="230.62" height="153.88"/>
  </clipPath>
 </defs>
</svg>
