<?xml version="1.0" encoding="utf-8" standalone="no"?>
<!DOCTYPE svg PUBLIC "-//W3C//DTD SVG 1.1//EN"
  "http://www.w3.org/Graphics/SVG/1.1/DTD/svg11.dtd">
<svg xmlns:xlink="http://www.w3.org/1999/xlink" width="288pt" height="216pt" viewBox="0 0 288 216" xmlns="http://www.w3.org/2000/svg" version="1.1">
 <metadata>
  <rdf:RDF xmlns:dc="http://purl.org/dc/elements/1.1/" xmlns:cc="http://creativecommons.org/ns#" xmlns:rdf="http://www.w3.org/1999/02/22-rdf-syntax-ns#">
   <cc:Work>
    <dc:type rdf:resource="http://purl.org/dc/dcmitype/StillImage"/>
    <dc:date>2025-12-11T15:05:26.233262</dc:date>
    <dc:format>image/svg+xml</dc:format>
    <dc:creator>
     <cc:Agent>
      <dc:title>Matplotlib v3.10.8, https://matplotlib.org/</dc:title>
     </cc:Agent>
    </dc:creator>
   </cc:Work>
  </rdf:RDF>
 </metadata>
 <defs>
  <style type="text/css">*{stroke-linejoin: round; stroke-linecap: butt}</style>
 </defs>
 <g id="figure_1">
  <g id="patch_1">
   <path d="M 0 216 
L 288 216 
L 288 0 
L 0 0 
L 0 216 
z
" style="fill: none; opacity: 0"/>
  </g>
  <g id="axes_1">
   <g id="patch_2">
    <path d="M 46.58 164.68 
L 277.2 164.68 
L 277.2 10.8 
L 46.58 10.8 
L 46.58 164.68 
z
" style="fill: none; opacity: 0"/>
   </g>
   <g id="patch_3">
    <path d="M 98.207327 164.68 
L 106.632824 164.68 
L 106.632824 159.252134 
L 98.207327 159.252134 
z
" clip-path="url(#peb9d7b656c)" style="fill: #ff0000; fill-opacity: 0.2; stroke: #ffffff; stroke-linejoin: miter"/>
   </g>
   <g id="patch_4">
    <path d="M 106.632824 164.68 
L 115.058322 164.68 
L 115.058322 164.68 
L 106.632824 164.68 
z
" clip-path="url(#peb9d7b656c)" style="fill: #ff0000; fill-opacity: 0.2; stroke: #ffffff; stroke-linejoin: miter"/>
   </g>
   <g id="patch_5">
    <path d="M 115.058322 164.68 
L 123.483819 164.68 
L 123.483819 161.966067 
L 115.058322 161.966067 
z
" clip-path="url(#peb9d7b656c)" style="fill: #ff0000; fill-opacity: 0.2; stroke: #ffffff; stroke-linejoin: miter"/>
   </g>
   <g id="patch_6">
    <path d="M 123.483819 164.68 
L 131.909316 164.68 
L 131.909316 159.252134 
L 123.483819 159.252134 
z
" clip-path="url(#peb9d7b656c)" style="fill: #ff0000; fill-opacity: 0.2; stroke: #ffffff; stroke-linejoin: miter"/>
   </g>
   <g id="patch_7">
    <path d="M 131.909316 164.68 
L 140.334813 164.68 
L 140.334813 159.252134 
L 131.909316 159.252134 
z
" clip-path="url(#peb9d7b656c)" style="fill: #ff0000; fill-opacity: 0.2; stroke: #ffffff; stroke-linejoin: miter"/>
   </g>
   <g id="patch_8">
    <path d="M 140.334813 164.68 
L 148.760311 164.68 
L 148.760311 153.824268 
L 140.334813 153.824268 
z
" clip-path="url(#peb9d7b656c)" style="fill: #ff0000; fill-opacity: 0.2; stroke: #ffffff; stroke-linejoin: miter"/>
   </g>
   <g id="patch_9">
    <path d="M 148.760311 164.68 
L 157.185808 164.68 
L 157.185808 137.54067 
L 148.760311 137.54067 
z
" clip-path="url(#peb9d7b656c)" style="fill: #ff0000; fill-opacity: 0.2; stroke: #ffffff; stroke-linejoin: miter"/>
   </g>
   <g id="patch_10">
    <path d="M 157.185808 164.68 
L 165.611305 164.68 
L 165.611305 142.968536 
L 157.185808 142.968536 
z
" clip-path="url(#peb9d7b656c)" style="fill: #ff0000; fill-opacity: 0.2; stroke: #ffffff; stroke-linejoin: miter"/>
   </g>
   <g id="patch_11">
    <path d="M 165.611305 164.68 
L 174.036803 164.68 
L 174.036803 132.112804 
L 165.611305 132.112804 
z
" clip-path="url(#peb9d7b656c)" style="fill: #ff0000; fill-opacity: 0.2; stroke: #ffffff; stroke-linejoin: miter"/>
   </g>
   <g id="patch_12">
    <path d="M 174.036803 164.68 
L 182.4623 164.68 
L 182.4623 118.543139 
L 174.036803 118.543139 
z
" clip-path="url(#peb9d7b656c)" style="fill: #ff0000; fill-opacity: 0.2; stroke: #ffffff; stroke-linejoin: miter"/>
   </g>
   <g id="patch_13">
    <path d="M 182.4623 164.68 
L 190.887797 164.68 
L 190.887797 85.975944 
L 182.4623 85.975944 
z
" clip-path="url(#peb9d7b656c)" style="fill: #ff0000; fill-opacity: 0.2; stroke: #ffffff; stroke-linejoin: miter"/>
   </g>
   <g id="patch_14">
    <path d="M 190.887797 164.68 
L 199.313294 164.68 
L 199.313294 53.408748 
L 190.887797 53.408748 
z
" clip-path="url(#peb9d7b656c)" style="fill: #ff0000; fill-opacity: 0.2; stroke: #ffffff; stroke-linejoin: miter"/>
   </g>
   <g id="patch_15">
    <path d="M 199.313294 164.68 
L 207.738792 164.68 
L 207.738792 80.548078 
L 199.313294 80.548078 
z
" clip-path="url(#peb9d7b656c)" style="fill: #ff0000; fill-opacity: 0.2; stroke: #ffffff; stroke-linejoin: miter"/>
   </g>
   <g id="patch_16">
    <path d="M 207.738792 164.68 
L 216.164289 164.68 
L 216.164289 47.980882 
L 207.738792 47.980882 
z
" clip-path="url(#peb9d7b656c)" style="fill: #ff0000; fill-opacity: 0.2; stroke: #ffffff; stroke-linejoin: miter"/>
   </g>
   <g id="patch_17">
    <path d="M 216.164289 164.68 
L 224.589786 164.68 
L 224.589786 69.692346 
L 216.164289 69.692346 
z
" clip-path="url(#peb9d7b656c)" style="fill: #ff0000; fill-opacity: 0.2; stroke: #ffffff; stroke-linejoin: miter"/>
   </g>
   <g id="patch_18">
    <path d="M 224.589786 164.68 
L 233.015284 164.68 
L 233.015284 18.127619 
L 224.589786 18.127619 
z
" clip-path="url(#peb9d7b656c)" style="fill: #ff0000; fill-opacity: 0.2; stroke: #ffffff; stroke-linejoin: miter"/>
   </g>
   <g id="patch_19">
    <path d="M 233.015284 164.68 
L 241.440781 164.68 
L 241.440781 34.411217 
L 233.015284 34.411217 
z
" clip-path="url(#peb9d7b656c)" style="fill: #ff0000; fill-opacity: 0.2; stroke: #ffffff; stroke-linejoin: miter"/>
   </g>
   <g id="patch_20">
    <path d="M 241.440781 164.68 
L 249.866278 164.68 
L 249.866278 69.692346 
L 241.440781 69.692346 
z
" clip-path="url(#peb9d7b656c)" style="fill: #ff0000; fill-opacity: 0.2; stroke: #ffffff; stroke-linejoin: miter"/>
   </g>
   <g id="patch_21">
    <path d="M 249.866278 164.68 
L 258.291775 164.68 
L 258.291775 118.543139 
L 249.866278 118.543139 
z
" clip-path="url(#peb9d7b656c)" style="fill: #ff0000; fill-opacity: 0.2; stroke: #ffffff; stroke-linejoin: miter"/>
   </g>
   <g id="patch_22">
    <path d="M 258.291775 164.68 
L 266.717273 164.68 
L 266.717273 151.110335 
L 258.291775 151.110335 
z
" clip-path="url(#peb9d7b656c)" style="fill: #ff0000; fill-opacity: 0.2; stroke: #ffffff; stroke-linejoin: miter"/>
   </g>
   <g id="patch_23">
    <path d="M 57.062727 164.68 
L 67.421055 164.68 
L 67.421055 162.924621 
L 57.062727 162.924621 
z
" clip-path="url(#peb9d7b656c)" style="fill: #808080; fill-opacity: 0.2; stroke: #ffffff; stroke-linejoin: miter"/>
   </g>
   <g id="patch_24">
    <path d="M 67.421055 164.68 
L 77.779382 164.68 
L 77.779382 157.658484 
L 67.421055 157.658484 
z
" clip-path="url(#peb9d7b656c)" style="fill: #808080; fill-opacity: 0.2; stroke: #ffffff; stroke-linejoin: miter"/>
   </g>
   <g id="patch_25">
    <path d="M 77.779382 164.68 
L 88.137709 164.68 
L 88.137709 155.903105 
L 77.779382 155.903105 
z
" clip-path="url(#peb9d7b656c)" style="fill: #808080; fill-opacity: 0.2; stroke: #ffffff; stroke-linejoin: miter"/>
   </g>
   <g id="patch_26">
    <path d="M 88.137709 164.68 
L 98.496036 164.68 
L 98.496036 150.636969 
L 88.137709 150.636969 
z
" clip-path="url(#peb9d7b656c)" style="fill: #808080; fill-opacity: 0.2; stroke: #ffffff; stroke-linejoin: miter"/>
   </g>
   <g id="patch_27">
    <path d="M 98.496036 164.68 
L 108.854364 164.68 
L 108.854364 127.817043 
L 98.496036 127.817043 
z
" clip-path="url(#peb9d7b656c)" style="fill: #808080; fill-opacity: 0.2; stroke: #ffffff; stroke-linejoin: miter"/>
   </g>
   <g id="patch_28">
    <path d="M 108.854364 164.68 
L 119.212691 164.68 
L 119.212691 106.752496 
L 108.854364 106.752496 
z
" clip-path="url(#peb9d7b656c)" style="fill: #808080; fill-opacity: 0.2; stroke: #ffffff; stroke-linejoin: miter"/>
   </g>
   <g id="patch_29">
    <path d="M 119.212691 164.68 
L 129.571018 164.68 
L 129.571018 124.306285 
L 119.212691 124.306285 
z
" clip-path="url(#peb9d7b656c)" style="fill: #808080; fill-opacity: 0.2; stroke: #ffffff; stroke-linejoin: miter"/>
   </g>
   <g id="patch_30">
    <path d="M 129.571018 164.68 
L 139.929346 164.68 
L 139.929346 101.486359 
L 129.571018 101.486359 
z
" clip-path="url(#peb9d7b656c)" style="fill: #808080; fill-opacity: 0.2; stroke: #ffffff; stroke-linejoin: miter"/>
   </g>
   <g id="patch_31">
    <path d="M 139.929346 164.68 
L 150.287673 164.68 
L 150.287673 99.73098 
L 139.929346 99.73098 
z
" clip-path="url(#peb9d7b656c)" style="fill: #808080; fill-opacity: 0.2; stroke: #ffffff; stroke-linejoin: miter"/>
   </g>
   <g id="patch_32">
    <path d="M 150.287673 164.68 
L 160.646 164.68 
L 160.646 83.93257 
L 150.287673 83.93257 
z
" clip-path="url(#peb9d7b656c)" style="fill: #808080; fill-opacity: 0.2; stroke: #ffffff; stroke-linejoin: miter"/>
   </g>
   <g id="patch_33">
    <path d="M 160.646 164.68 
L 171.004328 164.68 
L 171.004328 83.93257 
L 160.646 83.93257 
z
" clip-path="url(#peb9d7b656c)" style="fill: #808080; fill-opacity: 0.2; stroke: #ffffff; stroke-linejoin: miter"/>
   </g>
   <g id="patch_34">
    <path d="M 171.004328 164.68 
L 181.362655 164.68 
L 181.362655 94.464844 
L 171.004328 94.464844 
z
" clip-path="url(#peb9d7b656c)" style="fill: #808080; fill-opacity: 0.2; stroke: #ffffff; stroke-linejoin: miter"/>
   </g>
   <g id="patch_35">
    <path d="M 181.362655 164.68 
L 191.720982 164.68 
L 191.720982 76.911055 
L 181.362655 76.911055 
z
" clip-path="url(#peb9d7b656c)" style="fill: #808080; fill-opacity: 0.2; stroke: #ffffff; stroke-linejoin: miter"/>
   </g>
   <g id="patch_36">
    <path d="M 191.720982 164.68 
L 202.079309 164.68 
L 202.079309 94.464844 
L 191.720982 94.464844 
z
" clip-path="url(#peb9d7b656c)" style="fill: #808080; fill-opacity: 0.2; stroke: #ffffff; stroke-linejoin: miter"/>
   </g>
   <g id="patch_37">
    <path d="M 202.079309 164.68 
L 212.437637 164.68 
L 212.437637 108.507875 
L 202.079309 108.507875 
z
" clip-path="url(#peb9d7b656c)" style="fill: #808080; fill-opacity: 0.2; stroke: #ffffff; stroke-linejoin: miter"/>
   </g>
   <g id="patch_38">
    <path d="M 212.437637 164.68 
L 222.795964 164.68 
L 222.795964 117.28477 
L 212.437637 117.28477 
z
" clip-path="url(#peb9d7b656c)" style="fill: #808080; fill-opacity: 0.2; stroke: #ffffff; stroke-linejoin: miter"/>
   </g>
   <g id="patch_39">
    <path d="M 222.795964 164.68 
L 233.154291 164.68 
L 233.154291 141.860074 
L 222.795964 141.860074 
z
" clip-path="url(#peb9d7b656c)" style="fill: #808080; fill-opacity: 0.2; stroke: #ffffff; stroke-linejoin: miter"/>
   </g>
   <g id="patch_40">
    <path d="M 233.154291 164.68 
L 243.512619 164.68 
L 243.512619 127.817043 
L 233.154291 127.817043 
z
" clip-path="url(#peb9d7b656c)" style="fill: #808080; fill-opacity: 0.2; stroke: #ffffff; stroke-linejoin: miter"/>
   </g>
   <g id="patch_41">
    <path d="M 243.512619 164.68 
L 253.870946 164.68 
L 253.870946 145.370832 
L 243.512619 145.370832 
z
" clip-path="url(#peb9d7b656c)" style="fill: #808080; fill-opacity: 0.2; stroke: #ffffff; stroke-linejoin: miter"/>
   </g>
   <g id="patch_42">
    <path d="M 253.870946 164.68 
L 264.229273 164.68 
L 264.229273 157.658484 
L 253.870946 157.658484 
z
" clip-path="url(#peb9d7b656c)" style="fill: #808080; fill-opacity: 0.2; stroke: #ffffff; stroke-linejoin: miter"/>
   </g>
   <g id="matplotlib.axis_1">
    <g id="xtick_1">
     <g id="line2d_1">
      <defs>
       <path id="md693e50563" d="M 0 0 
L 0 3.5 
" style="stroke: #000000; stroke-width: 0.8"/>
      </defs>
      <g>
       <use xlink:href="#md693e50563" x="79.762866" y="164.68" style="stroke: #000000; stroke-width: 0.8"/>
      </g>
     </g>
     <g id="text_1">
      <!-- 0.2 -->
      <g transform="translate(68.630679 182.317813) scale(0.14 -0.14)">
       <defs>
        <path id="DejaVuSans-30" d="M 2034 4250 
Q 1547 4250 1301 3770 
Q 1056 3291 1056 2328 
Q 1056 1369 1301 889 
Q 1547 409 2034 409 
Q 2525 409 2770 889 
Q 3016 1369 3016 2328 
Q 3016 3291 2770 3770 
Q 2525 4250 2034 4250 
z
M 2034 4750 
Q 2819 4750 3233 4129 
Q 3647 3509 3647 2328 
Q 3647 1150 3233 529 
Q 2819 -91 2034 -91 
Q 1250 -91 836 529 
Q 422 1150 422 2328 
Q 422 3509 836 4129 
Q 1250 4750 2034 4750 
z
" transform="scale(0.015625)"/>
        <path id="DejaVuSans-2e" d="M 684 794 
L 1344 794 
L 1344 0 
L 684 0 
L 684 794 
z
" transform="scale(0.015625)"/>
        <path id="DejaVuSans-32" d="M 1228 531 
L 3431 531 
L 3431 0 
L 469 0 
L 469 531 
Q 828 903 1448 1529 
Q 2069 2156 2228 2338 
Q 2531 2678 2651 2914 
Q 2772 3150 2772 3378 
Q 2772 3750 2511 3984 
Q 2250 4219 1831 4219 
Q 1534 4219 1204 4116 
Q 875 4013 500 3803 
L 500 4441 
Q 881 4594 1212 4672 
Q 1544 4750 1819 4750 
Q 2544 4750 2975 4387 
Q 3406 4025 3406 3419 
Q 3406 3131 3298 2873 
Q 3191 2616 2906 2266 
Q 2828 2175 2409 1742 
Q 1991 1309 1228 531 
z
" transform="scale(0.015625)"/>
       </defs>
       <use xlink:href="#DejaVuSans-30"/>
       <use xlink:href="#DejaVuSans-2e" transform="translate(63.623047 0)"/>
       <use xlink:href="#DejaVuSans-32" transform="translate(95.410156 0)"/>
      </g>
     </g>
    </g>
    <g id="xtick_2">
     <g id="line2d_2">
      <g>
       <use xlink:href="#md693e50563" x="141.561001" y="164.68" style="stroke: #000000; stroke-width: 0.8"/>
      </g>
     </g>
     <g id="text_2">
      <!-- 0.4 -->
      <g transform="translate(130.428813 182.317813) scale(0.14 -0.14)">
       <defs>
        <path id="DejaVuSans-34" d="M 2419 4116 
L 825 1625 
L 2419 1625 
L 2419 4116 
z
M 2253 4666 
L 3047 4666 
L 3047 1625 
L 3713 1625 
L 3713 1100 
L 3047 1100 
L 3047 0 
L 2419 0 
L 2419 1100 
L 313 1100 
L 313 1709 
L 2253 4666 
z
" transform="scale(0.015625)"/>
       </defs>
       <use xlink:href="#DejaVuSans-30"/>
       <use xlink:href="#DejaVuSans-2e" transform="translate(63.623047 0)"/>
       <use xlink:href="#DejaVuSans-34" transform="translate(95.410156 0)"/>
      </g>
     </g>
    </g>
    <g id="xtick_3">
     <g id="line2d_3">
      <g>
       <use xlink:href="#md693e50563" x="203.359136" y="164.68" style="stroke: #000000; stroke-width: 0.8"/>
      </g>
     </g>
     <g id="text_3">
      <!-- 0.6 -->
      <g transform="translate(192.226948 182.317813) scale(0.14 -0.14)">
       <defs>
        <path id="DejaVuSans-36" d="M 2113 2584 
Q 1688 2584 1439 2293 
Q 1191 2003 1191 1497 
Q 1191 994 1439 701 
Q 1688 409 2113 409 
Q 2538 409 2786 701 
Q 3034 994 3034 1497 
Q 3034 2003 2786 2293 
Q 2538 2584 2113 2584 
z
M 3366 4563 
L 3366 3988 
Q 3128 4100 2886 4159 
Q 2644 4219 2406 4219 
Q 1781 4219 1451 3797 
Q 1122 3375 1075 2522 
Q 1259 2794 1537 2939 
Q 1816 3084 2150 3084 
Q 2853 3084 3261 2657 
Q 3669 2231 3669 1497 
Q 3669 778 3244 343 
Q 2819 -91 2113 -91 
Q 1303 -91 875 529 
Q 447 1150 447 2328 
Q 447 3434 972 4092 
Q 1497 4750 2381 4750 
Q 2619 4750 2861 4703 
Q 3103 4656 3366 4563 
z
" transform="scale(0.015625)"/>
       </defs>
       <use xlink:href="#DejaVuSans-30"/>
       <use xlink:href="#DejaVuSans-2e" transform="translate(63.623047 0)"/>
       <use xlink:href="#DejaVuSans-36" transform="translate(95.410156 0)"/>
      </g>
     </g>
    </g>
    <g id="xtick_4">
     <g id="line2d_4">
      <g>
       <use xlink:href="#md693e50563" x="265.15727" y="164.68" style="stroke: #000000; stroke-width: 0.8"/>
      </g>
     </g>
     <g id="text_4">
      <!-- 0.8 -->
      <g transform="translate(254.025083 182.317813) scale(0.14 -0.14)">
       <defs>
        <path id="DejaVuSans-38" d="M 2034 2216 
Q 1584 2216 1326 1975 
Q 1069 1734 1069 1313 
Q 1069 891 1326 650 
Q 1584 409 2034 409 
Q 2484 409 2743 651 
Q 3003 894 3003 1313 
Q 3003 1734 2745 1975 
Q 2488 2216 2034 2216 
z
M 1403 2484 
Q 997 2584 770 2862 
Q 544 3141 544 3541 
Q 544 4100 942 4425 
Q 1341 4750 2034 4750 
Q 2731 4750 3128 4425 
Q 3525 4100 3525 3541 
Q 3525 3141 3298 2862 
Q 3072 2584 2669 2484 
Q 3125 2378 3379 2068 
Q 3634 1759 3634 1313 
Q 3634 634 3220 271 
Q 2806 -91 2034 -91 
Q 1263 -91 848 271 
Q 434 634 434 1313 
Q 434 1759 690 2068 
Q 947 2378 1403 2484 
z
M 1172 3481 
Q 1172 3119 1398 2916 
Q 1625 2713 2034 2713 
Q 2441 2713 2670 2916 
Q 2900 3119 2900 3481 
Q 2900 3844 2670 4047 
Q 2441 4250 2034 4250 
Q 1625 4250 1398 4047 
Q 1172 3844 1172 3481 
z
" transform="scale(0.015625)"/>
       </defs>
       <use xlink:href="#DejaVuSans-30"/>
       <use xlink:href="#DejaVuSans-2e" transform="translate(63.623047 0)"/>
       <use xlink:href="#DejaVuSans-38" transform="translate(95.410156 0)"/>
      </g>
     </g>
    </g>
    <g id="text_5">
     <!-- p(Seq) - ESM2 -->
     <g transform="translate(105.39125 201.386875) scale(0.16 -0.16)">
      <defs>
       <path id="DejaVuSans-70" d="M 1159 525 
L 1159 -1331 
L 581 -1331 
L 581 3500 
L 1159 3500 
L 1159 2969 
Q 1341 3281 1617 3432 
Q 1894 3584 2278 3584 
Q 2916 3584 3314 3078 
Q 3713 2572 3713 1747 
Q 3713 922 3314 415 
Q 2916 -91 2278 -91 
Q 1894 -91 1617 61 
Q 1341 213 1159 525 
z
M 3116 1747 
Q 3116 2381 2855 2742 
Q 2594 3103 2138 3103 
Q 1681 3103 1420 2742 
Q 1159 2381 1159 1747 
Q 1159 1113 1420 752 
Q 1681 391 2138 391 
Q 2594 391 2855 752 
Q 3116 1113 3116 1747 
z
" transform="scale(0.015625)"/>
       <path id="DejaVuSans-28" d="M 1984 4856 
Q 1566 4138 1362 3434 
Q 1159 2731 1159 2009 
Q 1159 1288 1364 580 
Q 1569 -128 1984 -844 
L 1484 -844 
Q 1016 -109 783 600 
Q 550 1309 550 2009 
Q 550 2706 781 3412 
Q 1013 4119 1484 4856 
L 1984 4856 
z
" transform="scale(0.015625)"/>
       <path id="DejaVuSans-53" d="M 3425 4513 
L 3425 3897 
Q 3066 4069 2747 4153 
Q 2428 4238 2131 4238 
Q 1616 4238 1336 4038 
Q 1056 3838 1056 3469 
Q 1056 3159 1242 3001 
Q 1428 2844 1947 2747 
L 2328 2669 
Q 3034 2534 3370 2195 
Q 3706 1856 3706 1288 
Q 3706 609 3251 259 
Q 2797 -91 1919 -91 
Q 1588 -91 1214 -16 
Q 841 59 441 206 
L 441 856 
Q 825 641 1194 531 
Q 1563 422 1919 422 
Q 2459 422 2753 634 
Q 3047 847 3047 1241 
Q 3047 1584 2836 1778 
Q 2625 1972 2144 2069 
L 1759 2144 
Q 1053 2284 737 2584 
Q 422 2884 422 3419 
Q 422 4038 858 4394 
Q 1294 4750 2059 4750 
Q 2388 4750 2728 4690 
Q 3069 4631 3425 4513 
z
" transform="scale(0.015625)"/>
       <path id="DejaVuSans-65" d="M 3597 1894 
L 3597 1613 
L 953 1613 
Q 991 1019 1311 708 
Q 1631 397 2203 397 
Q 2534 397 2845 478 
Q 3156 559 3463 722 
L 3463 178 
Q 3153 47 2828 -22 
Q 2503 -91 2169 -91 
Q 1331 -91 842 396 
Q 353 884 353 1716 
Q 353 2575 817 3079 
Q 1281 3584 2069 3584 
Q 2775 3584 3186 3129 
Q 3597 2675 3597 1894 
z
M 3022 2063 
Q 3016 2534 2758 2815 
Q 2500 3097 2075 3097 
Q 1594 3097 1305 2825 
Q 1016 2553 972 2059 
L 3022 2063 
z
" transform="scale(0.015625)"/>
       <path id="DejaVuSans-71" d="M 947 1747 
Q 947 1113 1208 752 
Q 1469 391 1925 391 
Q 2381 391 2643 752 
Q 2906 1113 2906 1747 
Q 2906 2381 2643 2742 
Q 2381 3103 1925 3103 
Q 1469 3103 1208 2742 
Q 947 2381 947 1747 
z
M 2906 525 
Q 2725 213 2448 61 
Q 2172 -91 1784 -91 
Q 1150 -91 751 415 
Q 353 922 353 1747 
Q 353 2572 751 3078 
Q 1150 3584 1784 3584 
Q 2172 3584 2448 3432 
Q 2725 3281 2906 2969 
L 2906 3500 
L 3481 3500 
L 3481 -1331 
L 2906 -1331 
L 2906 525 
z
" transform="scale(0.015625)"/>
       <path id="DejaVuSans-29" d="M 513 4856 
L 1013 4856 
Q 1481 4119 1714 3412 
Q 1947 2706 1947 2009 
Q 1947 1309 1714 600 
Q 1481 -109 1013 -844 
L 513 -844 
Q 928 -128 1133 580 
Q 1338 1288 1338 2009 
Q 1338 2731 1133 3434 
Q 928 4138 513 4856 
z
" transform="scale(0.015625)"/>
       <path id="DejaVuSans-20" transform="scale(0.015625)"/>
       <path id="DejaVuSans-2d" d="M 313 2009 
L 1997 2009 
L 1997 1497 
L 313 1497 
L 313 2009 
z
" transform="scale(0.015625)"/>
       <path id="DejaVuSans-45" d="M 628 4666 
L 3578 4666 
L 3578 4134 
L 1259 4134 
L 1259 2753 
L 3481 2753 
L 3481 2222 
L 1259 2222 
L 1259 531 
L 3634 531 
L 3634 0 
L 628 0 
L 628 4666 
z
" transform="scale(0.015625)"/>
       <path id="DejaVuSans-4d" d="M 628 4666 
L 1569 4666 
L 2759 1491 
L 3956 4666 
L 4897 4666 
L 4897 0 
L 4281 0 
L 4281 4097 
L 3078 897 
L 2444 897 
L 1241 4097 
L 1241 0 
L 628 0 
L 628 4666 
z
" transform="scale(0.015625)"/>
      </defs>
      <use xlink:href="#DejaVuSans-70"/>
      <use xlink:href="#DejaVuSans-28" transform="translate(63.476562 0)"/>
      <use xlink:href="#DejaVuSans-53" transform="translate(102.490234 0)"/>
      <use xlink:href="#DejaVuSans-65" transform="translate(165.966797 0)"/>
      <use xlink:href="#DejaVuSans-71" transform="translate(227.490234 0)"/>
      <use xlink:href="#DejaVuSans-29" transform="translate(290.966797 0)"/>
      <use xlink:href="#DejaVuSans-20" transform="translate(329.980469 0)"/>
      <use xlink:href="#DejaVuSans-2d" transform="translate(361.767578 0)"/>
      <use xlink:href="#DejaVuSans-20" transform="translate(397.851562 0)"/>
      <use xlink:href="#DejaVuSans-45" transform="translate(429.638672 0)"/>
      <use xlink:href="#DejaVuSans-53" transform="translate(492.822266 0)"/>
      <use xlink:href="#DejaVuSans-4d" transform="translate(556.298828 0)"/>
      <use xlink:href="#DejaVuSans-32" transform="translate(642.578125 0)"/>
     </g>
    </g>
   </g>
   <g id="matplotlib.axis_2">
    <g id="ytick_1">
     <g id="line2d_5">
      <defs>
       <path id="ma96016c971" d="M 0 0 
L -3.5 0 
" style="stroke: #000000; stroke-width: 0.8"/>
      </defs>
      <g>
       <use xlink:href="#ma96016c971" x="46.58" y="164.68" style="stroke: #000000; stroke-width: 0.8"/>
      </g>
     </g>
     <g id="text_6">
      <!-- 0 -->
      <g transform="translate(30.6725 169.998906) scale(0.14 -0.14)">
       <use xlink:href="#DejaVuSans-30"/>
      </g>
     </g>
    </g>
    <g id="ytick_2">
     <g id="line2d_6">
      <g>
       <use xlink:href="#ma96016c971" x="46.58" y="135.374814" style="stroke: #000000; stroke-width: 0.8"/>
      </g>
     </g>
     <g id="text_7">
      <!-- 1 -->
      <g transform="translate(30.6725 140.693721) scale(0.14 -0.14)">
       <defs>
        <path id="DejaVuSans-31" d="M 794 531 
L 1825 531 
L 1825 4091 
L 703 3866 
L 703 4441 
L 1819 4666 
L 2450 4666 
L 2450 531 
L 3481 531 
L 3481 0 
L 794 0 
L 794 531 
z
" transform="scale(0.015625)"/>
       </defs>
       <use xlink:href="#DejaVuSans-31"/>
      </g>
     </g>
    </g>
    <g id="ytick_3">
     <g id="line2d_7">
      <g>
       <use xlink:href="#ma96016c971" x="46.58" y="106.069629" style="stroke: #000000; stroke-width: 0.8"/>
      </g>
     </g>
     <g id="text_8">
      <!-- 2 -->
      <g transform="translate(30.6725 111.388535) scale(0.14 -0.14)">
       <use xlink:href="#DejaVuSans-32"/>
      </g>
     </g>
    </g>
    <g id="ytick_4">
     <g id="line2d_8">
      <g>
       <use xlink:href="#ma96016c971" x="46.58" y="76.764443" style="stroke: #000000; stroke-width: 0.8"/>
      </g>
     </g>
     <g id="text_9">
      <!-- 3 -->
      <g transform="translate(30.6725 82.083349) scale(0.14 -0.14)">
       <defs>
        <path id="DejaVuSans-33" d="M 2597 2516 
Q 3050 2419 3304 2112 
Q 3559 1806 3559 1356 
Q 3559 666 3084 287 
Q 2609 -91 1734 -91 
Q 1441 -91 1130 -33 
Q 819 25 488 141 
L 488 750 
Q 750 597 1062 519 
Q 1375 441 1716 441 
Q 2309 441 2620 675 
Q 2931 909 2931 1356 
Q 2931 1769 2642 2001 
Q 2353 2234 1838 2234 
L 1294 2234 
L 1294 2753 
L 1863 2753 
Q 2328 2753 2575 2939 
Q 2822 3125 2822 3475 
Q 2822 3834 2567 4026 
Q 2313 4219 1838 4219 
Q 1578 4219 1281 4162 
Q 984 4106 628 3988 
L 628 4550 
Q 988 4650 1302 4700 
Q 1616 4750 1894 4750 
Q 2613 4750 3031 4423 
Q 3450 4097 3450 3541 
Q 3450 3153 3228 2886 
Q 3006 2619 2597 2516 
z
" transform="scale(0.015625)"/>
       </defs>
       <use xlink:href="#DejaVuSans-33"/>
      </g>
     </g>
    </g>
    <g id="ytick_5">
     <g id="line2d_9">
      <g>
       <use xlink:href="#ma96016c971" x="46.58" y="47.459257" style="stroke: #000000; stroke-width: 0.8"/>
      </g>
     </g>
     <g id="text_10">
      <!-- 4 -->
      <g transform="translate(30.6725 52.778164) scale(0.14 -0.14)">
       <use xlink:href="#DejaVuSans-34"/>
      </g>
     </g>
    </g>
    <g id="ytick_6">
     <g id="line2d_10">
      <g>
       <use xlink:href="#ma96016c971" x="46.58" y="18.154072" style="stroke: #000000; stroke-width: 0.8"/>
      </g>
     </g>
     <g id="text_11">
      <!-- 5 -->
      <g transform="translate(30.6725 23.472978) scale(0.14 -0.14)">
       <defs>
        <path id="DejaVuSans-35" d="M 691 4666 
L 3169 4666 
L 3169 4134 
L 1269 4134 
L 1269 2991 
Q 1406 3038 1543 3061 
Q 1681 3084 1819 3084 
Q 2600 3084 3056 2656 
Q 3513 2228 3513 1497 
Q 3513 744 3044 326 
Q 2575 -91 1722 -91 
Q 1428 -91 1123 -41 
Q 819 9 494 109 
L 494 744 
Q 775 591 1075 516 
Q 1375 441 1709 441 
Q 2250 441 2565 725 
Q 2881 1009 2881 1497 
Q 2881 1984 2565 2268 
Q 2250 2553 1709 2553 
Q 1456 2553 1204 2497 
Q 953 2441 691 2322 
L 691 4666 
z
" transform="scale(0.015625)"/>
       </defs>
       <use xlink:href="#DejaVuSans-35"/>
      </g>
     </g>
    </g>
    <g id="text_12">
     <!-- Density -->
     <g transform="translate(23.345 118.15375) rotate(-90) scale(0.16 -0.16)">
      <defs>
       <path id="DejaVuSans-44" d="M 1259 4147 
L 1259 519 
L 2022 519 
Q 2988 519 3436 956 
Q 3884 1394 3884 2338 
Q 3884 3275 3436 3711 
Q 2988 4147 2022 4147 
L 1259 4147 
z
M 628 4666 
L 1925 4666 
Q 3281 4666 3915 4102 
Q 4550 3538 4550 2338 
Q 4550 1131 3912 565 
Q 3275 0 1925 0 
L 628 0 
L 628 4666 
z
" transform="scale(0.015625)"/>
       <path id="DejaVuSans-6e" d="M 3513 2113 
L 3513 0 
L 2938 0 
L 2938 2094 
Q 2938 2591 2744 2837 
Q 2550 3084 2163 3084 
Q 1697 3084 1428 2787 
Q 1159 2491 1159 1978 
L 1159 0 
L 581 0 
L 581 3500 
L 1159 3500 
L 1159 2956 
Q 1366 3272 1645 3428 
Q 1925 3584 2291 3584 
Q 2894 3584 3203 3211 
Q 3513 2838 3513 2113 
z
" transform="scale(0.015625)"/>
       <path id="DejaVuSans-73" d="M 2834 3397 
L 2834 2853 
Q 2591 2978 2328 3040 
Q 2066 3103 1784 3103 
Q 1356 3103 1142 2972 
Q 928 2841 928 2578 
Q 928 2378 1081 2264 
Q 1234 2150 1697 2047 
L 1894 2003 
Q 2506 1872 2764 1633 
Q 3022 1394 3022 966 
Q 3022 478 2636 193 
Q 2250 -91 1575 -91 
Q 1294 -91 989 -36 
Q 684 19 347 128 
L 347 722 
Q 666 556 975 473 
Q 1284 391 1588 391 
Q 1994 391 2212 530 
Q 2431 669 2431 922 
Q 2431 1156 2273 1281 
Q 2116 1406 1581 1522 
L 1381 1569 
Q 847 1681 609 1914 
Q 372 2147 372 2553 
Q 372 3047 722 3315 
Q 1072 3584 1716 3584 
Q 2034 3584 2315 3537 
Q 2597 3491 2834 3397 
z
" transform="scale(0.015625)"/>
       <path id="DejaVuSans-69" d="M 603 3500 
L 1178 3500 
L 1178 0 
L 603 0 
L 603 3500 
z
M 603 4863 
L 1178 4863 
L 1178 4134 
L 603 4134 
L 603 4863 
z
" transform="scale(0.015625)"/>
       <path id="DejaVuSans-74" d="M 1172 4494 
L 1172 3500 
L 2356 3500 
L 2356 3053 
L 1172 3053 
L 1172 1153 
Q 1172 725 1289 603 
Q 1406 481 1766 481 
L 2356 481 
L 2356 0 
L 1766 0 
Q 1100 0 847 248 
Q 594 497 594 1153 
L 594 3053 
L 172 3053 
L 172 3500 
L 594 3500 
L 594 4494 
L 1172 4494 
z
" transform="scale(0.015625)"/>
       <path id="DejaVuSans-79" d="M 2059 -325 
Q 1816 -950 1584 -1140 
Q 1353 -1331 966 -1331 
L 506 -1331 
L 506 -850 
L 844 -850 
Q 1081 -850 1212 -737 
Q 1344 -625 1503 -206 
L 1606 56 
L 191 3500 
L 800 3500 
L 1894 763 
L 2988 3500 
L 3597 3500 
L 2059 -325 
z
" transform="scale(0.015625)"/>
      </defs>
      <use xlink:href="#DejaVuSans-44"/>
      <use xlink:href="#DejaVuSans-65" transform="translate(77.001953 0)"/>
      <use xlink:href="#DejaVuSans-6e" transform="translate(138.525391 0)"/>
      <use xlink:href="#DejaVuSans-73" transform="translate(201.904297 0)"/>
      <use xlink:href="#DejaVuSans-69" transform="translate(254.003906 0)"/>
      <use xlink:href="#DejaVuSans-74" transform="translate(281.787109 0)"/>
      <use xlink:href="#DejaVuSans-79" transform="translate(320.996094 0)"/>
     </g>
    </g>
   </g>
   <g id="line2d_11">
    <path d="M 98.207327 162.510052 
L 101.594462 162.459638 
L 110.062298 162.469947 
L 113.449433 162.163264 
L 118.530134 161.392203 
L 126.151187 160.239824 
L 130.385106 159.524263 
L 132.925456 158.876629 
L 135.465807 157.942239 
L 137.159375 157.118536 
L 138.852942 156.116703 
L 141.393293 154.28013 
L 143.933644 152.098594 
L 153.248264 143.524004 
L 155.788615 141.595667 
L 163.409668 136.070553 
L 165.103235 134.497779 
L 166.796802 132.65901 
L 168.49037 130.504259 
L 170.183937 127.99755 
L 171.877504 125.119277 
L 173.571072 121.868188 
L 176.111422 116.339257 
L 178.651773 110.170831 
L 187.11961 88.794819 
L 188.813177 85.1549 
L 190.506744 81.925288 
L 192.200312 79.135959 
L 193.893879 76.777001 
L 195.587446 74.798953 
L 197.281014 73.119213 
L 199.821365 70.929849 
L 204.055283 67.314548 
L 206.595634 64.796397 
L 209.135985 61.945001 
L 212.523119 57.730802 
L 216.757038 52.044745 
L 222.684523 43.978964 
L 224.37809 41.954185 
L 226.071658 40.250051 
L 227.765225 39.003508 
L 228.612009 38.595393 
L 229.458792 38.352932 
L 230.305576 38.291447 
L 231.15236 38.424779 
L 231.999143 38.765005 
L 232.845927 39.32223 
L 233.69271 40.104438 
L 234.539494 41.117407 
L 235.386278 42.364679 
L 236.233061 43.847575 
L 237.926629 47.514734 
L 239.620196 52.087399 
L 241.313763 57.503359 
L 243.007331 63.672607 
L 245.547682 74.081452 
L 248.934816 89.353432 
L 254.015518 112.565393 
L 256.555869 123.153911 
L 258.249436 129.556124 
L 259.943004 135.347412 
L 261.636571 140.492021 
L 263.330138 144.984923 
L 265.023705 148.846661 
L 266.717273 152.116785 
L 266.717273 152.116785 
" clip-path="url(#peb9d7b656c)" style="fill: none; stroke: #ff0000; stroke-width: 1.5; stroke-linecap: square"/>
   </g>
   <g id="line2d_12">
    <path d="M 57.062727 162.830623 
L 61.226879 161.947653 
L 65.391031 160.782214 
L 69.555182 159.333224 
L 73.719334 157.605991 
L 76.842448 156.105693 
L 79.965562 154.379136 
L 83.088675 152.358158 
L 86.211789 149.974999 
L 89.334903 147.189418 
L 92.458017 144.010533 
L 95.58113 140.504164 
L 100.78632 134.253978 
L 105.991509 128.070521 
L 109.114623 124.647025 
L 112.237737 121.551694 
L 115.360851 118.824188 
L 118.483965 116.450859 
L 121.607078 114.366768 
L 126.812268 111.246142 
L 132.017457 108.094566 
L 136.181609 105.267603 
L 139.304723 102.903912 
L 143.468875 99.457158 
L 151.797178 92.406876 
L 153.879254 90.891038 
L 155.96133 89.581307 
L 158.043405 88.516958 
L 160.125481 87.717927 
L 162.207557 87.180631 
L 164.289633 86.877688 
L 166.371709 86.762088 
L 169.494823 86.811457 
L 181.987278 87.417763 
L 184.069353 87.696073 
L 186.151429 88.150056 
L 188.233505 88.82797 
L 190.315581 89.766099 
L 192.397657 90.986495 
L 194.479733 92.496908 
L 196.561808 94.292037 
L 198.643884 96.355159 
L 200.72596 98.659492 
L 203.849074 102.487238 
L 208.013226 108.03014 
L 213.218415 115.007643 
L 216.341529 118.864823 
L 219.464643 122.289842 
L 221.546719 124.300045 
L 224.669832 126.924522 
L 227.792946 129.182802 
L 236.121249 134.861551 
L 239.244363 137.365644 
L 242.367477 140.187727 
L 246.531629 144.317582 
L 252.777856 150.562161 
L 255.90097 153.367617 
L 259.024084 155.826125 
L 262.147197 157.90477 
L 264.229273 159.083172 
L 264.229273 159.083172 
" clip-path="url(#peb9d7b656c)" style="fill: none; stroke: #808080; stroke-width: 1.5; stroke-linecap: square"/>
   </g>
   <g id="patch_43">
    <path d="M 46.58 164.68 
L 46.58 10.8 
" style="fill: none; stroke: #000000; stroke-width: 0.8; stroke-linejoin: miter; stroke-linecap: square"/>
   </g>
   <g id="patch_44">
    <path d="M 46.58 164.68 
L 277.2 164.68 
" style="fill: none; stroke: #000000; stroke-width: 0.8; stroke-linejoin: miter; stroke-linecap: square"/>
   </g>
  </g>
 </g>
 <defs>
  <clipPath id="peb9d7b656c">
   <rect x="46.58" y="10.8" width="230.62" height="153.88"/>
  </clipPath>
 </defs>
</svg>
